M48
;Layer_Color=9474304
;FILE_FORMAT=2:5
INCH,LZ
;TYPE=PLATED
T1F00S00C0.02800
T2F00S00C0.03000
T3F00S00C0.03150
T4F00S00C0.03543
T5F00S00C0.04016
T6F00S00C0.05118
T7F00S00C0.06000
T8F00S00C0.07283
;TYPE=NON_PLATED
T9F00S00C0.12992
%
T01
X0358Y0243
X0352Y0271734
X0375447Y0280628
X0385827Y0280315
X0429Y0283
X0423Y0266
X0299688Y026727
X0293009Y0280314
X0281509Y0280315
X0276804Y0287828
X0274803Y0259449
X02749Y02511
Y02429
X0245669Y0243307
Y0256693
X02167Y02584
X02094Y02579
X0202468Y0257768
X01958Y0255
X01965Y02373
X02061Y02351
Y02281
X02043Y02178
X02103Y02135
Y02061
X02018Y01974
X0191595Y0194495
X01776Y01946
X01798Y02326
X0173823Y0236677
X015692Y0246172
X01574Y02899
X01643Y02898
X0175591Y0305118
X01845Y02998
X02034Y03088
X0224071Y0301126
X0224679Y0291069
X024573Y028787
X02459Y02988
X0244882Y0311024
X0211Y0266987
X0208Y02441
X0251969Y0229134
X0255906Y0198031
X030315Y021063
X0209Y01828
X01538Y01987
Y02071
X01505Y02901
X01434Y02903
X01436Y03417
X01508Y03413
X0127Y03409
X0122504Y0370866
X01538Y03735
X01599Y0395
X02011Y03881
X02125Y0384
X02258Y03792
X0225795Y0389305
X02258Y03977
X02513Y03802
X02588Y03803
X0264Y0351
X0275197Y035352
X0274803Y0361024
X0284352Y0355907
X024685Y0331
X0247Y03214
X0227206Y0333006
X02155Y03218
X0203543Y0316535
X0323Y03484
X03334Y03407
X03333Y03564
X0367Y0361
X0383Y0378
X0400161Y0355702
X0373Y0413
X0389764Y0455905
X0429Y0457
T02
X03288Y04865
X03578
T03
X0377973Y0433083
X0385847
X0393721
X0401595
X0409469
X0417343
X0417556Y047639
X0409682
X0401808
X0393934
X038606
X0378186
T04
X0265Y0205
Y0215
Y0225
Y0235
Y0245
Y0255
Y0265
Y0275
T05
X0235551Y0191126
Y0201126
Y0211126
Y0221126
Y0231126
Y0241126
Y0251126
Y0261126
Y0271126
Y0281126
Y0291126
Y0301126
Y0311126
X0135551
Y0301126
Y0291126
Y0281126
Y0271126
Y0261126
Y0251126
Y0241126
Y0231126
Y0221126
Y0211126
Y0201126
Y0191126
Y0321126
Y0331126
Y0341126
Y0351126
Y0361126
Y0371126
X0235551
Y0361126
Y0351126
Y0341126
Y0331126
Y0321126
T06
X0314Y0175
X0333685
X03567
X0376385
X0414629Y0190017
Y0209702
X0414629Y0232699
Y0252384
X0291Y0175
X0271315
X0221772Y0471283
X0202087
T07
X0316929Y0277559
X0357246Y0287075
X0363386Y0370472
X03249Y03841
X03158Y03644
X041063Y0363779
X0404166Y0450213
X0419919Y0450366
T08
X0182886Y0446677
Y0474236
T09
X041811Y0166929
X0134Y01673
Y0391
X041811Y0390945
M30
