G04*
G04 #@! TF.GenerationSoftware,Altium Limited,Altium Designer,22.9.1 (49)*
G04*
G04 Layer_Physical_Order=2*
G04 Layer_Color=16711680*
%FSLAX44Y44*%
%MOMM*%
G71*
G04*
G04 #@! TF.SameCoordinates,66478680-C35E-4369-986B-202EB0108B9E*
G04*
G04*
G04 #@! TF.FilePolarity,Positive*
G04*
G01*
G75*
%ADD13C,0.2540*%
%ADD64C,0.7620*%
%ADD65C,0.5080*%
%ADD66C,0.3810*%
%ADD69C,2.0320*%
%ADD74C,1.5240*%
%ADD75C,2.0320*%
%ADD76R,2.0320X2.0320*%
%ADD77C,3.3000*%
%ADD78C,1.3080*%
%ADD79R,1.3080X1.3080*%
%ADD80C,2.7750*%
%ADD81R,2.7750X2.7750*%
%ADD82C,1.5000*%
%ADD83R,1.5000X1.5000*%
%ADD84C,1.9500*%
%ADD85R,1.9500X1.9500*%
%ADD86R,1.9500X1.9500*%
%ADD87C,1.2700*%
%ADD88C,2.5400*%
G36*
X1097365Y1167443D02*
X1096095Y1166917D01*
X1095119Y1167894D01*
X1094839Y1168055D01*
Y1176020D01*
X1094445Y1178002D01*
X1093323Y1179682D01*
X1088242Y1184762D01*
X1086562Y1185885D01*
X1084580Y1186280D01*
X996100D01*
X994118Y1185885D01*
X992438Y1184762D01*
X986338Y1178662D01*
X985215Y1176982D01*
X984820Y1175000D01*
Y1165275D01*
X984541Y1165114D01*
X982886Y1163459D01*
X981716Y1161431D01*
X981110Y1159170D01*
Y1156830D01*
X981716Y1154569D01*
X982886Y1152541D01*
X984541Y1150886D01*
X986569Y1149716D01*
X988830Y1149110D01*
X991170D01*
X993431Y1149716D01*
X995459Y1150886D01*
X997114Y1152541D01*
X998284Y1154569D01*
X998890Y1156830D01*
Y1159170D01*
X998284Y1161431D01*
X997114Y1163459D01*
X995459Y1165114D01*
X995180Y1165275D01*
Y1172855D01*
X998245Y1175920D01*
X1082435D01*
X1084481Y1173875D01*
Y1168055D01*
X1084201Y1167894D01*
X1082546Y1166239D01*
X1081376Y1164211D01*
X1080770Y1161950D01*
Y1159610D01*
X1081376Y1157349D01*
X1082546Y1155321D01*
X1084201Y1153666D01*
X1086229Y1152496D01*
X1088490Y1151890D01*
X1090830D01*
X1093091Y1152496D01*
X1095119Y1153666D01*
X1096095Y1154643D01*
X1097365Y1154117D01*
Y1112250D01*
Y1109959D01*
X1096192Y1109473D01*
X1076071Y1129594D01*
Y1131932D01*
X1076309Y1132091D01*
X1078431Y1134214D01*
X1080099Y1136710D01*
X1081248Y1139483D01*
X1081834Y1142428D01*
Y1145430D01*
X1081248Y1148374D01*
X1080099Y1151148D01*
X1078431Y1153644D01*
X1076309Y1155766D01*
X1073813Y1157434D01*
X1071039Y1158583D01*
X1068095Y1159169D01*
X1065093D01*
X1062148Y1158583D01*
X1059375Y1157434D01*
X1056879Y1155766D01*
X1054756Y1153644D01*
X1053088Y1151148D01*
X1051939Y1148374D01*
X1051354Y1145430D01*
Y1142428D01*
X1051525Y1141568D01*
X1050354Y1140942D01*
X1047179Y1144118D01*
X1045078Y1145521D01*
X1042600Y1146014D01*
X1041629D01*
X1041237Y1147987D01*
X1040088Y1150760D01*
X1038420Y1153257D01*
X1036297Y1155379D01*
X1033801Y1157047D01*
X1031028Y1158196D01*
X1028083Y1158782D01*
X1025081D01*
X1022137Y1158196D01*
X1019363Y1157047D01*
X1016867Y1155379D01*
X1014745Y1153257D01*
X1013077Y1150760D01*
X1011928Y1147987D01*
X1011342Y1145042D01*
Y1142040D01*
X1011928Y1139096D01*
X1013077Y1136323D01*
X1014745Y1133827D01*
X1016867Y1131704D01*
X1019363Y1130036D01*
X1022137Y1128887D01*
X1025081Y1128301D01*
X1028083D01*
X1031028Y1128887D01*
X1033801Y1130036D01*
X1036297Y1131704D01*
X1037659Y1133065D01*
X1039919D01*
X1062701Y1110283D01*
X1062215Y1109110D01*
X1050970D01*
Y1090950D01*
X1069130D01*
Y1102195D01*
X1070304Y1102681D01*
X1073026Y1099959D01*
Y1069482D01*
X1008238Y1004694D01*
X916940D01*
X914462Y1004202D01*
X912362Y1002798D01*
X841360Y931796D01*
X816051D01*
X815638Y932795D01*
X813970Y935291D01*
X811847Y937414D01*
X809351Y939081D01*
X806577Y940230D01*
X803633Y940816D01*
X800631D01*
X797687Y940230D01*
X794913Y939081D01*
X792417Y937414D01*
X790294Y935291D01*
X788626Y932795D01*
X787478Y930021D01*
X786892Y927077D01*
Y924075D01*
X787478Y921131D01*
X788626Y918357D01*
X790294Y915861D01*
X791734Y914422D01*
X791256Y913165D01*
X790355Y913054D01*
X775137Y928273D01*
X773666Y929255D01*
X771932Y929600D01*
X706995D01*
X706994Y929600D01*
X705260Y929255D01*
X703790Y928273D01*
X700935Y925417D01*
X699170Y925890D01*
X696830D01*
X694569Y925284D01*
X692541Y924114D01*
X690886Y922459D01*
X689716Y920431D01*
X689110Y918170D01*
Y915830D01*
X689716Y913569D01*
X690886Y911541D01*
X692541Y909886D01*
X694569Y908716D01*
X696830Y908110D01*
X699170D01*
X701431Y908716D01*
X701760Y908906D01*
X702540Y907889D01*
X701204Y906553D01*
X700171Y906830D01*
X697830D01*
X695569Y906225D01*
X693542Y905054D01*
X691887Y903399D01*
X690716Y901372D01*
X690110Y899111D01*
Y896770D01*
X690716Y894509D01*
X691887Y892482D01*
X693542Y890827D01*
X695569Y889656D01*
X697830Y889050D01*
X700171D01*
X702432Y889656D01*
X704459Y890827D01*
X706114Y892482D01*
X707284Y894509D01*
X707890Y896770D01*
Y899111D01*
X707614Y900144D01*
X712093Y904624D01*
X713363Y904098D01*
Y902834D01*
X713969Y900573D01*
X715139Y898546D01*
X716795Y896890D01*
X718822Y895720D01*
X720983Y895141D01*
Y904004D01*
X722253D01*
Y905274D01*
X731116D01*
X730537Y907436D01*
X729367Y909463D01*
X727712Y911118D01*
X725685Y912288D01*
X723627Y912840D01*
X723227Y913464D01*
X722985Y914164D01*
X722999Y914186D01*
X765965D01*
X781401Y898749D01*
X782872Y897767D01*
X784606Y897422D01*
X784606Y897422D01*
X832073D01*
X837779Y891716D01*
X838340Y891341D01*
X842304Y887377D01*
Y873027D01*
X841377Y872492D01*
X839722Y870837D01*
X838552Y868809D01*
X837946Y866548D01*
Y864208D01*
X838552Y861947D01*
X839722Y859919D01*
X841377Y858264D01*
X843405Y857094D01*
X845666Y856488D01*
X848006D01*
X850267Y857094D01*
X851792Y857974D01*
X853062Y857336D01*
Y719218D01*
X842318Y708474D01*
X819847D01*
X819654Y709445D01*
X818505Y712219D01*
X816838Y714715D01*
X814715Y716838D01*
X812219Y718505D01*
X809445Y719654D01*
X806501Y720240D01*
X803499D01*
X800555Y719654D01*
X797781Y718505D01*
X795285Y716838D01*
X793162Y714715D01*
X791495Y712219D01*
X790346Y709445D01*
X789760Y706501D01*
Y703499D01*
X790346Y700555D01*
X791495Y697781D01*
X793162Y695285D01*
X795285Y693162D01*
X797781Y691495D01*
X800555Y690346D01*
X803499Y689760D01*
X806501D01*
X809445Y690346D01*
X812219Y691495D01*
X814715Y693162D01*
X816838Y695285D01*
X816998Y695526D01*
X845000D01*
X847478Y696018D01*
X849578Y697422D01*
X864114Y711958D01*
X865518Y714058D01*
X866010Y716536D01*
Y922894D01*
X922162Y979046D01*
X1016000D01*
X1018478Y979538D01*
X1020578Y980942D01*
X1096192Y1056556D01*
X1097365Y1056070D01*
Y962890D01*
Y725483D01*
X1096095Y724957D01*
X1095119Y725934D01*
X1093091Y727104D01*
X1090830Y727710D01*
X1088490D01*
X1086229Y727104D01*
X1084201Y725934D01*
X1082546Y724279D01*
X1081376Y722251D01*
X1080770Y719990D01*
Y717650D01*
X1081376Y715389D01*
X1082546Y713361D01*
X1084201Y711706D01*
X1084481Y711545D01*
Y677349D01*
X1083211Y677182D01*
X1082704Y679071D01*
X1081534Y681099D01*
X1079879Y682754D01*
X1077851Y683924D01*
X1075590Y684530D01*
X1073250D01*
X1070989Y683924D01*
X1068961Y682754D01*
X1067306Y681099D01*
X1066771Y680172D01*
X990292D01*
X988558Y679827D01*
X987087Y678845D01*
X984855Y676613D01*
X983873Y675143D01*
X983528Y673408D01*
Y517497D01*
X978563Y512532D01*
X798790D01*
Y649673D01*
X798445Y651407D01*
X797463Y652877D01*
X797463Y652877D01*
X782026Y668314D01*
X782552Y669584D01*
X859116D01*
X860850Y669929D01*
X862321Y670911D01*
X884274Y692865D01*
X885413Y692208D01*
X885190Y691375D01*
Y689035D01*
X885796Y686774D01*
X886966Y684746D01*
X888621Y683091D01*
X890649Y681921D01*
X892910Y681315D01*
X895250D01*
X896094Y681541D01*
X904140Y673495D01*
Y624495D01*
X903861Y624334D01*
X902206Y622679D01*
X901036Y620651D01*
X900430Y618390D01*
Y616050D01*
X901036Y613789D01*
X902206Y611761D01*
X903861Y610106D01*
X905889Y608936D01*
X908150Y608330D01*
X910490D01*
X912751Y608936D01*
X914779Y610106D01*
X916434Y611761D01*
X917604Y613789D01*
X918210Y616050D01*
Y618390D01*
X917604Y620651D01*
X916434Y622679D01*
X914779Y624334D01*
X914500Y624495D01*
Y675640D01*
X914105Y677622D01*
X912982Y679303D01*
X902970Y689315D01*
Y691375D01*
X902364Y693636D01*
X901463Y695198D01*
X902073Y696468D01*
X976094D01*
X977828Y696813D01*
X979298Y697795D01*
X981530Y700027D01*
X982513Y701497D01*
X982858Y703232D01*
Y703562D01*
X983431Y703716D01*
X985459Y704886D01*
X987114Y706541D01*
X988284Y708569D01*
X988890Y710830D01*
Y713170D01*
X988284Y715431D01*
X987114Y717459D01*
X985459Y719114D01*
X983431Y720284D01*
X981170Y720890D01*
X978830D01*
X976569Y720284D01*
X974541Y719114D01*
X972886Y717459D01*
X971716Y715431D01*
X971110Y713170D01*
Y710830D01*
X971716Y708569D01*
X972736Y706802D01*
X972427Y705952D01*
X972100Y705532D01*
X960742D01*
X960216Y706802D01*
X960750Y707336D01*
X961921Y709364D01*
X962526Y711625D01*
Y713965D01*
X961921Y716226D01*
X960750Y718254D01*
X959095Y719909D01*
X957068Y721079D01*
X954807Y721685D01*
X952466D01*
X950205Y721079D01*
X948178Y719909D01*
X946523Y718254D01*
X945428Y716357D01*
X917830D01*
X917414Y717627D01*
X919242Y719455D01*
X920910Y721951D01*
X922058Y724725D01*
X922644Y727669D01*
Y730671D01*
X922058Y733615D01*
X920910Y736389D01*
X919242Y738885D01*
X917119Y741008D01*
X914623Y742675D01*
X911849Y743824D01*
X909421Y744307D01*
X904810Y748919D01*
Y904694D01*
X926217Y926101D01*
X927445Y926346D01*
X930219Y927495D01*
X932715Y929162D01*
X934838Y931285D01*
X936506Y933781D01*
X937654Y936555D01*
X938240Y939499D01*
Y942501D01*
X937654Y945445D01*
X936506Y948219D01*
X934838Y950715D01*
X932715Y952838D01*
X930219Y954505D01*
X927445Y955654D01*
X924501Y956240D01*
X921499D01*
X918555Y955654D01*
X915781Y954505D01*
X913285Y952838D01*
X911162Y950715D01*
X909494Y948219D01*
X908346Y945445D01*
X908101Y944217D01*
X882942Y919058D01*
X880907Y916405D01*
X879627Y913315D01*
X879190Y910000D01*
Y743613D01*
X879627Y740298D01*
X880907Y737208D01*
X882942Y734555D01*
X892744Y724754D01*
X892750Y724725D01*
X893898Y721951D01*
X895566Y719455D01*
X897394Y717627D01*
X896978Y716357D01*
X884825D01*
X883091Y716012D01*
X881620Y715030D01*
X851589Y684998D01*
X788515D01*
X769809Y703705D01*
X768338Y704687D01*
X766604Y705032D01*
X751510D01*
X751024Y706205D01*
X751356Y706538D01*
X752527Y708565D01*
X753133Y710826D01*
Y713167D01*
X752527Y715428D01*
X751356Y717455D01*
X749701Y719110D01*
X747674Y720281D01*
X745413Y720887D01*
X743072D01*
X740811Y720281D01*
X738784Y719110D01*
X737129Y717455D01*
X735958Y715428D01*
X735353Y713167D01*
Y710826D01*
X735958Y708565D01*
X737129Y706538D01*
X737461Y706205D01*
X736975Y705032D01*
X726317D01*
X723121Y708229D01*
X723317Y708569D01*
X723923Y710830D01*
Y713170D01*
X723317Y715431D01*
X722146Y717459D01*
X720491Y719114D01*
X718464Y720284D01*
X716203Y720890D01*
X713862D01*
X711601Y720284D01*
X709574Y719114D01*
X708802Y718342D01*
X707532Y718868D01*
Y723386D01*
X708541Y723969D01*
X710196Y725624D01*
X711366Y727651D01*
X711972Y729912D01*
Y732253D01*
X711366Y734514D01*
X710196Y736541D01*
X708541Y738196D01*
X706514Y739366D01*
X704253Y739972D01*
X701912D01*
X700909Y739704D01*
X700251Y740842D01*
X823625Y864215D01*
X824607Y865686D01*
X824952Y867420D01*
Y877287D01*
X825879Y877822D01*
X827534Y879477D01*
X828704Y881505D01*
X829310Y883766D01*
Y886106D01*
X828704Y888367D01*
X827534Y890395D01*
X825879Y892050D01*
X823851Y893220D01*
X821590Y893826D01*
X819250D01*
X816989Y893220D01*
X814961Y892050D01*
X813306Y890395D01*
X812136Y888367D01*
X811530Y886106D01*
Y883766D01*
X812136Y881505D01*
X813306Y879477D01*
X814961Y877822D01*
X815888Y877287D01*
Y869297D01*
X663408Y716817D01*
X662138Y717343D01*
Y885807D01*
X663408Y886148D01*
X663446Y886081D01*
X665101Y884426D01*
X667129Y883256D01*
X669390Y882650D01*
X671730D01*
X673991Y883256D01*
X676019Y884426D01*
X677674Y886081D01*
X678844Y888109D01*
X679450Y890370D01*
Y892710D01*
X678844Y894971D01*
X677674Y896999D01*
X676019Y898654D01*
X675740Y898815D01*
Y1020981D01*
X924560D01*
X926542Y1021375D01*
X928223Y1022497D01*
X945938Y1040213D01*
X946250Y1040130D01*
X948590D01*
X950851Y1040736D01*
X952879Y1041906D01*
X954534Y1043561D01*
X955704Y1045589D01*
X956310Y1047850D01*
Y1050190D01*
X955704Y1052451D01*
X954534Y1054479D01*
X952879Y1056134D01*
X950851Y1057304D01*
X948590Y1057910D01*
X946250D01*
X946095Y1057868D01*
X945437Y1059007D01*
X977691Y1091262D01*
X978855Y1090950D01*
X981246D01*
X983555Y1091569D01*
X985626Y1092764D01*
X987316Y1094455D01*
X988512Y1096525D01*
X989130Y1098834D01*
Y1101225D01*
X988512Y1103534D01*
X987316Y1105605D01*
X985626Y1107296D01*
X983555Y1108491D01*
X981246Y1109110D01*
X978855D01*
X976546Y1108491D01*
X974475Y1107296D01*
X972785Y1105605D01*
X971589Y1103534D01*
X970971Y1101225D01*
Y1098834D01*
X971282Y1097671D01*
X969628Y1096017D01*
X969140Y1096239D01*
X968575Y1096759D01*
X969130Y1098834D01*
Y1101225D01*
X968512Y1103534D01*
X967316Y1105605D01*
X965626Y1107296D01*
X963555Y1108491D01*
X961246Y1109110D01*
X958855D01*
X956546Y1108491D01*
X954475Y1107296D01*
X952785Y1105605D01*
X951589Y1103534D01*
X950971Y1101225D01*
Y1098834D01*
X951282Y1097671D01*
X899543Y1045932D01*
X891441D01*
X890955Y1047105D01*
X894745Y1050895D01*
X894745Y1050895D01*
X895727Y1052366D01*
X896072Y1054100D01*
X896072Y1054100D01*
Y1133503D01*
X956917Y1194348D01*
X969442D01*
X971177Y1194693D01*
X972647Y1195675D01*
X978234Y1201263D01*
X979398Y1200951D01*
X981789D01*
X984098Y1201570D01*
X986169Y1202765D01*
X987859Y1204456D01*
X989055Y1206526D01*
X989673Y1208836D01*
Y1211227D01*
X989055Y1213536D01*
X987859Y1215606D01*
X986169Y1217297D01*
X984098Y1218492D01*
X981789Y1219111D01*
X979398D01*
X977089Y1218492D01*
X975018Y1217297D01*
X973328Y1215606D01*
X972132Y1213536D01*
X971513Y1211227D01*
Y1208836D01*
X971825Y1207672D01*
X970171Y1206018D01*
X969683Y1206240D01*
X969117Y1206760D01*
X969673Y1208836D01*
Y1211227D01*
X969055Y1213536D01*
X967859Y1215606D01*
X966169Y1217297D01*
X964098Y1218492D01*
X961789Y1219111D01*
X959398D01*
X957089Y1218492D01*
X955018Y1217297D01*
X953328Y1215606D01*
X952132Y1213536D01*
X952068Y1213297D01*
X950529Y1212991D01*
X949059Y1212008D01*
X949059Y1212008D01*
X880715Y1143665D01*
X879733Y1142194D01*
X879388Y1140460D01*
Y1061172D01*
X620014D01*
X620014Y1061172D01*
X618280Y1060827D01*
X616809Y1059845D01*
X575736Y1018771D01*
X574702Y1019048D01*
X572362D01*
X570101Y1018442D01*
X568073Y1017272D01*
X566418Y1015617D01*
X565248Y1013589D01*
X564642Y1011328D01*
Y1008988D01*
X565248Y1006727D01*
X566418Y1004699D01*
X568073Y1003044D01*
X570101Y1001874D01*
X572362Y1001268D01*
X574702D01*
X576963Y1001874D01*
X578991Y1003044D01*
X580646Y1004699D01*
X581816Y1006727D01*
X582422Y1008988D01*
Y1011328D01*
X582145Y1012362D01*
X621891Y1052108D01*
X633321D01*
X633807Y1050935D01*
X578879Y996006D01*
X576950Y997119D01*
X574689Y997725D01*
X572348D01*
X570087Y997119D01*
X568060Y995949D01*
X566405Y994294D01*
X565235Y992267D01*
X564629Y990006D01*
Y987665D01*
X565235Y985404D01*
X566405Y983377D01*
X568060Y981721D01*
X568589Y981416D01*
X568249Y980146D01*
X547252D01*
X546864Y980819D01*
X545209Y982474D01*
X543181Y983644D01*
X540920Y984250D01*
X538580D01*
X536319Y983644D01*
X534291Y982474D01*
X532636Y980819D01*
X531466Y978791D01*
X530860Y976530D01*
Y974190D01*
X531466Y971929D01*
X532636Y969901D01*
X534291Y968246D01*
X536319Y967076D01*
X538580Y966470D01*
X540920D01*
X543181Y967076D01*
X545209Y968246D01*
X546864Y969901D01*
X547545Y971082D01*
X567077D01*
X567604Y969812D01*
X566418Y968627D01*
X565248Y966599D01*
X564642Y964338D01*
Y961998D01*
X565248Y959737D01*
X566418Y957709D01*
X568073Y956054D01*
X570101Y954884D01*
X572362Y954278D01*
X574702D01*
X576963Y954884D01*
X578991Y956054D01*
X580646Y957709D01*
X581816Y959737D01*
X582422Y961998D01*
Y964338D01*
X582145Y965372D01*
X646021Y1029248D01*
X666152D01*
X666659Y1027978D01*
X665775Y1026654D01*
X665380Y1024672D01*
Y972278D01*
X664110Y971776D01*
X662811Y973076D01*
X660783Y974246D01*
X658522Y974852D01*
X656182D01*
X653921Y974246D01*
X651893Y973076D01*
X650238Y971421D01*
X649068Y969393D01*
X648462Y967132D01*
Y964792D01*
X648763Y963669D01*
X647628Y963028D01*
X646961Y963676D01*
X647192Y964538D01*
Y966878D01*
X646586Y969139D01*
X645416Y971167D01*
X643761Y972822D01*
X641733Y973992D01*
X639472Y974598D01*
X637132D01*
X634871Y973992D01*
X632843Y972822D01*
X631188Y971167D01*
X630018Y969139D01*
X629412Y966878D01*
Y964538D01*
X630018Y962277D01*
X631188Y960249D01*
X632843Y958594D01*
X634871Y957424D01*
X637132Y956818D01*
X639472D01*
X640506Y957095D01*
X646724Y950877D01*
Y926229D01*
X645454Y925703D01*
X637534Y933623D01*
X635854Y934745D01*
X633872Y935140D01*
X606807D01*
X606321Y936313D01*
X606430Y936422D01*
X607768Y938738D01*
X608460Y941322D01*
Y943998D01*
X607768Y946582D01*
X606430Y948898D01*
X604538Y950790D01*
X602222Y952128D01*
X599638Y952820D01*
X596963D01*
X594378Y952128D01*
X592062Y950790D01*
X590170Y948898D01*
X588832Y946582D01*
X588140Y943998D01*
Y941322D01*
X588832Y938738D01*
X590170Y936422D01*
X590279Y936313D01*
X589793Y935140D01*
X587968D01*
X585986Y934745D01*
X584305Y933623D01*
X500666Y849984D01*
X402772D01*
X400790Y849589D01*
X399109Y848466D01*
X399109Y848466D01*
X396133Y845491D01*
X395011Y843810D01*
X394617Y841828D01*
Y743621D01*
X394337Y743460D01*
X392682Y741805D01*
X391849Y740361D01*
X391149Y740320D01*
X390446Y740472D01*
X389384Y742313D01*
X388212Y743485D01*
Y859627D01*
X388491Y859788D01*
X390146Y861443D01*
X391316Y863471D01*
X391922Y865732D01*
Y868072D01*
X391316Y870333D01*
X390146Y872361D01*
X388491Y874016D01*
X386463Y875186D01*
X384202Y875792D01*
X381862D01*
X379601Y875186D01*
X377573Y874016D01*
X375918Y872361D01*
X374748Y870333D01*
X374682Y870086D01*
X373367D01*
X373028Y871349D01*
X371858Y873377D01*
X370203Y875032D01*
X368175Y876202D01*
X366781Y876576D01*
X366401Y877992D01*
X366882Y878473D01*
X366883Y878473D01*
X368005Y880154D01*
X368400Y882136D01*
Y958229D01*
X404664Y994493D01*
X404976Y994410D01*
X407316D01*
X409577Y995016D01*
X411605Y996186D01*
X413260Y997841D01*
X414430Y999869D01*
X415036Y1002130D01*
Y1004470D01*
X414430Y1006731D01*
X413260Y1008759D01*
X411605Y1010414D01*
X409577Y1011584D01*
X407316Y1012190D01*
X404976D01*
X402715Y1011584D01*
X400687Y1010414D01*
X399032Y1008759D01*
X397862Y1006731D01*
X397256Y1004470D01*
Y1002130D01*
X397339Y1001818D01*
X359557Y964036D01*
X358435Y962356D01*
X358041Y960374D01*
Y955914D01*
X357000Y955360D01*
X331600D01*
Y947840D01*
X317893D01*
X316619Y949114D01*
X314592Y950284D01*
X312330Y950890D01*
X309990D01*
X307729Y950284D01*
X306155Y949375D01*
X304885Y949977D01*
Y1243255D01*
X826670D01*
X827156Y1242082D01*
X827022Y1241948D01*
X825684Y1239632D01*
X824992Y1237048D01*
Y1236980D01*
X835152D01*
X845312D01*
Y1237048D01*
X844620Y1239632D01*
X843282Y1241948D01*
X843148Y1242082D01*
X843634Y1243255D01*
X900330D01*
X900816Y1242082D01*
X900682Y1241948D01*
X899344Y1239632D01*
X898652Y1237048D01*
Y1234372D01*
X899344Y1231788D01*
X900682Y1229472D01*
X902574Y1227580D01*
X904890Y1226242D01*
X907474Y1225550D01*
X910150D01*
X912734Y1226242D01*
X915050Y1227580D01*
X916942Y1229472D01*
X918280Y1231788D01*
X918972Y1234372D01*
Y1237048D01*
X918280Y1239632D01*
X916942Y1241948D01*
X916784Y1242106D01*
X917270Y1243280D01*
X1097365D01*
Y1167443D01*
D02*
G37*
G36*
X963841Y1090940D02*
X964063Y1090452D01*
X911923Y1038312D01*
X906402D01*
X905915Y1039485D01*
X957692Y1091262D01*
X958855Y1090950D01*
X961246D01*
X963321Y1091506D01*
X963841Y1090940D01*
D02*
G37*
G36*
X331600Y929960D02*
X338357D01*
X338697Y928690D01*
X336502Y927423D01*
X334137Y925058D01*
X332466Y922162D01*
X331600Y918932D01*
Y915588D01*
X332466Y912358D01*
X334137Y909462D01*
X336502Y907097D01*
X339398Y905425D01*
X342628Y904560D01*
X345972D01*
X349202Y905425D01*
X352098Y907097D01*
X354463Y909462D01*
X356134Y912358D01*
X356771Y914731D01*
X358041Y914564D01*
Y884340D01*
X352807D01*
X352321Y885513D01*
X352430Y885622D01*
X353768Y887938D01*
X354460Y890523D01*
Y893198D01*
X353768Y895782D01*
X352430Y898098D01*
X350538Y899990D01*
X348222Y901328D01*
X345638Y902020D01*
X342962D01*
X340378Y901328D01*
X338062Y899990D01*
X336170Y898098D01*
X334832Y895782D01*
X334140Y893198D01*
Y890523D01*
X334832Y887938D01*
X336170Y885622D01*
X336279Y885513D01*
X335793Y884340D01*
X311332D01*
X309350Y883945D01*
X307669Y882822D01*
X307669Y882822D01*
X306058Y881211D01*
X304885Y881697D01*
Y934023D01*
X306155Y934624D01*
X307729Y933716D01*
X309990Y933110D01*
X312330D01*
X314592Y933716D01*
X316619Y934886D01*
X318274Y936541D01*
X318816Y937480D01*
X331600D01*
Y929960D01*
D02*
G37*
G36*
X853062Y923526D02*
Y912967D01*
X851792Y912514D01*
X850013Y913540D01*
X847752Y914146D01*
X845412D01*
X843151Y913540D01*
X841725Y912717D01*
X841128Y912836D01*
X812735D01*
X812215Y914106D01*
X813970Y915861D01*
X815638Y918357D01*
X815841Y918848D01*
X844042D01*
X846520Y919340D01*
X848620Y920744D01*
X851888Y924012D01*
X853062Y923526D01*
D02*
G37*
G36*
X637187Y919320D02*
Y832725D01*
X629463Y825002D01*
X628550Y825246D01*
X626210D01*
X623949Y824640D01*
X621921Y823470D01*
X620266Y821815D01*
X619096Y819787D01*
X618490Y817526D01*
Y815186D01*
X619096Y812925D01*
X620266Y810897D01*
X621921Y809242D01*
X623949Y808072D01*
X626210Y807466D01*
X628550D01*
X630811Y808072D01*
X632839Y809242D01*
X634494Y810897D01*
X635664Y812925D01*
X636270Y815186D01*
Y817159D01*
X645454Y826343D01*
X646724Y825817D01*
Y743493D01*
X634314Y731084D01*
X633045Y731610D01*
Y732360D01*
X632439Y734621D01*
X631268Y736648D01*
X629613Y738303D01*
X629334Y738464D01*
Y751428D01*
X630045Y751838D01*
X631700Y753493D01*
X632870Y755521D01*
X633476Y757782D01*
Y760122D01*
X632870Y762383D01*
X631700Y764411D01*
X630045Y766066D01*
X628017Y767236D01*
X625756Y767842D01*
X623416D01*
X621155Y767236D01*
X619127Y766066D01*
X617472Y764411D01*
X616302Y762383D01*
X615696Y760122D01*
Y757782D01*
X616302Y755521D01*
X617472Y753493D01*
X618975Y751991D01*
Y738464D01*
X618696Y738303D01*
X617041Y736648D01*
X615870Y734621D01*
X615265Y732360D01*
Y730019D01*
X615870Y727758D01*
X617041Y725731D01*
X618696Y724076D01*
X620723Y722905D01*
X622984Y722299D01*
X623734D01*
X624260Y721030D01*
X601541Y698310D01*
X599638Y698820D01*
X596963D01*
X594378Y698128D01*
X592062Y696790D01*
X590170Y694898D01*
X588832Y692582D01*
X588140Y689998D01*
Y687322D01*
X588832Y684738D01*
X590170Y682422D01*
X592062Y680530D01*
X594378Y679192D01*
X596963Y678500D01*
X599638D01*
X602222Y679192D01*
X604538Y680530D01*
X606430Y682422D01*
X607768Y684738D01*
X608460Y687322D01*
Y689998D01*
X607950Y691901D01*
X651901Y735851D01*
X653074Y735365D01*
Y718157D01*
X607219Y672302D01*
X606098Y673423D01*
X603202Y675095D01*
X599972Y675960D01*
X596628D01*
X593398Y675095D01*
X590502Y673423D01*
X588138Y671058D01*
X587282Y669577D01*
X586012Y669917D01*
Y772250D01*
X585965Y772488D01*
X586771Y773470D01*
X590746D01*
X591272Y772200D01*
X590170Y771098D01*
X588832Y768782D01*
X588140Y766198D01*
Y763522D01*
X588832Y760938D01*
X590170Y758622D01*
X592062Y756730D01*
X594378Y755392D01*
X596963Y754700D01*
X599638D01*
X602222Y755392D01*
X604538Y756730D01*
X606430Y758622D01*
X607768Y760938D01*
X608460Y763522D01*
Y766198D01*
X607768Y768782D01*
X606430Y771098D01*
X605329Y772200D01*
X605855Y773470D01*
X611886D01*
X613620Y773815D01*
X615091Y774797D01*
X621403Y781110D01*
X623170D01*
X625431Y781716D01*
X627459Y782886D01*
X629114Y784541D01*
X630284Y786569D01*
X630890Y788830D01*
Y791170D01*
X630284Y793431D01*
X629114Y795459D01*
X627459Y797114D01*
X625431Y798284D01*
X623170Y798890D01*
X620830D01*
X618569Y798284D01*
X616541Y797114D01*
X614886Y795459D01*
X613716Y793431D01*
X613110Y791170D01*
Y788830D01*
X613716Y786569D01*
X613836Y786361D01*
X610009Y782534D01*
X606602D01*
X606116Y783707D01*
X606430Y784022D01*
X607768Y786338D01*
X608460Y788923D01*
Y791598D01*
X607768Y794182D01*
X606430Y796498D01*
X604538Y798390D01*
X602222Y799728D01*
X599638Y800420D01*
X596963D01*
X594378Y799728D01*
X592062Y798390D01*
X590170Y796498D01*
X588832Y794182D01*
X588140Y791598D01*
Y788923D01*
X588832Y786338D01*
X590170Y784022D01*
X590484Y783707D01*
X589998Y782534D01*
X586585D01*
X581563Y787557D01*
X580092Y788539D01*
X578358Y788884D01*
X524285D01*
X523750Y789811D01*
X522095Y791466D01*
X520067Y792636D01*
X517806Y793242D01*
X515466D01*
X513205Y792636D01*
X511177Y791466D01*
X509522Y789811D01*
X508352Y787783D01*
X507746Y785522D01*
Y783182D01*
X508352Y780921D01*
X509522Y778893D01*
X511177Y777238D01*
X513205Y776068D01*
X515466Y775462D01*
X517806D01*
X520067Y776068D01*
X522095Y777238D01*
X523750Y778893D01*
X524285Y779820D01*
X552204D01*
X552642Y778550D01*
X550720Y776628D01*
X549738Y775158D01*
X549393Y773423D01*
Y766109D01*
X549308Y766024D01*
X476279D01*
X475744Y766951D01*
X474089Y768606D01*
X472061Y769776D01*
X469800Y770382D01*
X467460D01*
X465199Y769776D01*
X463171Y768606D01*
X461516Y766951D01*
X460346Y764923D01*
X459740Y762662D01*
Y760322D01*
X460346Y758061D01*
X460429Y757916D01*
X459413Y757136D01*
X451180Y765370D01*
Y767725D01*
X451459Y767886D01*
X453114Y769541D01*
X454284Y771569D01*
X454890Y773830D01*
Y776170D01*
X454284Y778431D01*
X453114Y780459D01*
X451459Y782114D01*
X449431Y783284D01*
X447170Y783890D01*
X444830D01*
X442569Y783284D01*
X440541Y782114D01*
X438886Y780459D01*
X438250Y779356D01*
X436979Y779696D01*
Y817019D01*
X528638D01*
X530620Y817413D01*
X532300Y818536D01*
X595782Y882017D01*
X596963Y881700D01*
X599638D01*
X602222Y882392D01*
X604538Y883730D01*
X606430Y885622D01*
X607768Y887938D01*
X608460Y890523D01*
Y893198D01*
X607768Y895782D01*
X606430Y898098D01*
X604538Y899990D01*
X602222Y901328D01*
X599638Y902020D01*
X596963D01*
X594378Y901328D01*
X592062Y899990D01*
X590170Y898098D01*
X588832Y895782D01*
X588140Y893198D01*
Y890523D01*
X588456Y889342D01*
X526493Y827377D01*
X434776D01*
X432794Y826983D01*
X431113Y825861D01*
X431113Y825860D01*
X428138Y822885D01*
X427015Y821204D01*
X426620Y819222D01*
Y767664D01*
X425350Y767139D01*
X420978Y771511D01*
Y830734D01*
X504698D01*
X506680Y831129D01*
X508360Y832252D01*
X588190Y912081D01*
X589559D01*
X590170Y911022D01*
X592062Y909130D01*
X594378Y907792D01*
X596963Y907100D01*
X599638D01*
X602222Y907792D01*
X604538Y909130D01*
X606430Y911022D01*
X607768Y913338D01*
X608460Y915922D01*
Y918598D01*
X607768Y921182D01*
X606430Y923498D01*
X606321Y923607D01*
X606807Y924781D01*
X631726D01*
X637187Y919320D01*
D02*
G37*
G36*
X665380Y959646D02*
Y898815D01*
X665101Y898654D01*
X663446Y896999D01*
X663408Y896933D01*
X662138Y897273D01*
Y958460D01*
X662811Y958848D01*
X664110Y960148D01*
X665380Y959646D01*
D02*
G37*
G36*
X357246Y872710D02*
X356460Y871349D01*
X355854Y869088D01*
Y866748D01*
X356460Y864487D01*
X357630Y862459D01*
X359057Y861033D01*
Y744637D01*
X358777Y744476D01*
X357122Y742821D01*
X355952Y740793D01*
X355730Y739966D01*
X354460Y740133D01*
Y740798D01*
X353768Y743382D01*
X352430Y745698D01*
X350538Y747590D01*
X348222Y748928D01*
X345638Y749620D01*
X342962D01*
X340378Y748928D01*
X338062Y747590D01*
X336170Y745698D01*
X334832Y743382D01*
X334140Y740798D01*
Y738122D01*
X334832Y735538D01*
X336170Y733222D01*
X338062Y731330D01*
X340378Y729992D01*
X342962Y729300D01*
X345638D01*
X348222Y729992D01*
X350538Y731330D01*
X352430Y733222D01*
X353768Y735538D01*
X354076Y736689D01*
X355346Y736522D01*
Y736192D01*
X355952Y733931D01*
X357122Y731903D01*
X358777Y730248D01*
X360805Y729078D01*
X363066Y728472D01*
X365406D01*
X367667Y729078D01*
X369695Y730248D01*
X371350Y731903D01*
X372520Y733931D01*
X372528Y733958D01*
X373842D01*
X373986Y733423D01*
X375156Y731395D01*
X376811Y729740D01*
X378839Y728570D01*
X381100Y727964D01*
X383440D01*
X385701Y728570D01*
X387729Y729740D01*
X389384Y731395D01*
X390217Y732839D01*
X390917Y732880D01*
X391620Y732728D01*
X392682Y730887D01*
X394337Y729232D01*
X396365Y728062D01*
X398626Y727456D01*
X400966D01*
X403227Y728062D01*
X405255Y729232D01*
X406910Y730887D01*
X407790Y732412D01*
X408249Y732503D01*
X409194Y732389D01*
X410208Y730633D01*
X411863Y728978D01*
X413891Y727808D01*
X416152Y727202D01*
X418492D01*
X420753Y727808D01*
X422781Y728978D01*
X424436Y730633D01*
X424597Y730912D01*
X431433D01*
X505604Y656741D01*
X505379Y655901D01*
Y653972D01*
X504155Y653450D01*
X502791Y654814D01*
X500763Y655984D01*
X498502Y656590D01*
X496162D01*
X493901Y655984D01*
X491873Y654814D01*
X490218Y653159D01*
X490057Y652879D01*
X362006D01*
X356217Y658668D01*
X357000Y661588D01*
Y664932D01*
X356134Y668162D01*
X354463Y671058D01*
X352098Y673423D01*
X349202Y675095D01*
X348342Y675325D01*
Y676595D01*
X349202Y676825D01*
X352098Y678497D01*
X354463Y680862D01*
X356134Y683758D01*
X357000Y686988D01*
Y690332D01*
X356134Y693562D01*
X354463Y696458D01*
X352098Y698823D01*
X349202Y700495D01*
X348342Y700725D01*
Y701995D01*
X349202Y702225D01*
X352098Y703897D01*
X354463Y706262D01*
X356134Y709158D01*
X357000Y712388D01*
Y715732D01*
X356134Y718962D01*
X354463Y721858D01*
X352098Y724223D01*
X349202Y725894D01*
X345972Y726760D01*
X342628D01*
X339398Y725894D01*
X336502Y724223D01*
X334137Y721858D01*
X332466Y718962D01*
X331600Y715732D01*
Y712388D01*
X332466Y709158D01*
X334137Y706262D01*
X336502Y703897D01*
X339398Y702225D01*
X340258Y701995D01*
Y700725D01*
X339398Y700495D01*
X336502Y698823D01*
X334137Y696458D01*
X332466Y693562D01*
X331600Y690332D01*
Y686988D01*
X332466Y683758D01*
X334137Y680862D01*
X336502Y678497D01*
X339398Y676825D01*
X340258Y676595D01*
Y675325D01*
X339398Y675095D01*
X336502Y673423D01*
X334137Y671058D01*
X332466Y668162D01*
X331600Y664932D01*
Y661588D01*
X332466Y658358D01*
X334137Y655462D01*
X336502Y653098D01*
X339398Y651425D01*
X340258Y651195D01*
Y649925D01*
X339398Y649695D01*
X336502Y648023D01*
X334137Y645658D01*
X332466Y642762D01*
X331600Y639532D01*
Y636188D01*
X332466Y632958D01*
X334137Y630062D01*
X336502Y627697D01*
X339398Y626026D01*
X342628Y625160D01*
X345972D01*
X349202Y626026D01*
X352098Y627697D01*
X354463Y630062D01*
X355974Y632681D01*
X391612D01*
X392138Y631410D01*
X391462Y630735D01*
X390292Y628708D01*
X389686Y626447D01*
Y624106D01*
X390292Y621845D01*
X391462Y619818D01*
X393118Y618162D01*
X395145Y616992D01*
X397406Y616386D01*
X399747D01*
X402008Y616992D01*
X404035Y618162D01*
X404771Y618899D01*
X416447D01*
X432704Y602641D01*
X432620Y602330D01*
Y599989D01*
X433226Y597728D01*
X434397Y595701D01*
X436052Y594046D01*
X438079Y592876D01*
X440340Y592270D01*
X442681D01*
X444942Y592876D01*
X446969Y594046D01*
X447069Y594146D01*
X448208Y593489D01*
X447829Y592074D01*
X455422D01*
Y599667D01*
X453261Y599088D01*
X451233Y597918D01*
X451133Y597818D01*
X449995Y598475D01*
X450400Y599989D01*
Y602330D01*
X449795Y604591D01*
X448624Y606618D01*
X446969Y608273D01*
X444942Y609444D01*
X442681Y610050D01*
X440340D01*
X440029Y609966D01*
X422254Y627741D01*
X420574Y628863D01*
X418592Y629258D01*
X407359D01*
X407034Y629821D01*
X407767Y631091D01*
X548032D01*
Y609286D01*
X546859Y608800D01*
X537127Y618532D01*
X537210Y618844D01*
Y621184D01*
X536604Y623445D01*
X535434Y625473D01*
X533779Y627128D01*
X531751Y628298D01*
X529490Y628904D01*
X527150D01*
X524889Y628298D01*
X522861Y627128D01*
X521206Y625473D01*
X520036Y623445D01*
X519430Y621184D01*
Y618844D01*
X520036Y616583D01*
X521206Y614555D01*
X522861Y612900D01*
X524889Y611730D01*
X527150Y611124D01*
X529490D01*
X529802Y611207D01*
X540412Y600597D01*
Y551298D01*
X539142Y550594D01*
X538694Y550874D01*
Y562610D01*
X538694Y562610D01*
X538349Y564344D01*
X537367Y565815D01*
X529937Y573245D01*
X530608Y573915D01*
X531778Y575943D01*
X532384Y578204D01*
Y580544D01*
X531778Y582805D01*
X530608Y584833D01*
X528953Y586488D01*
X527047Y587588D01*
X526944Y588264D01*
X527047Y588940D01*
X528953Y590040D01*
X530608Y591695D01*
X531778Y593723D01*
X532384Y595984D01*
Y598324D01*
X531778Y600585D01*
X530608Y602613D01*
X528953Y604268D01*
X526925Y605438D01*
X524664Y606044D01*
X522324D01*
X520063Y605438D01*
X518035Y604268D01*
X516380Y602613D01*
X515210Y600585D01*
X514604Y598324D01*
Y595984D01*
X514881Y594950D01*
X508351Y588421D01*
X507369Y586950D01*
X507024Y585216D01*
Y566928D01*
X507369Y565194D01*
X508351Y563723D01*
X512606Y559468D01*
X511808Y558671D01*
X510638Y556643D01*
X510175Y554916D01*
X508839Y554456D01*
X504290Y559005D01*
Y595467D01*
X504569Y595628D01*
X506224Y597283D01*
X507394Y599311D01*
X508000Y601572D01*
Y603912D01*
X507394Y606173D01*
X506224Y608201D01*
X504569Y609856D01*
X502541Y611026D01*
X500280Y611632D01*
X497940D01*
X495679Y611026D01*
X493651Y609856D01*
X491996Y608201D01*
X490826Y606173D01*
X490220Y603912D01*
Y601572D01*
X490826Y599311D01*
X491996Y597283D01*
X493651Y595628D01*
X493931Y595467D01*
Y556860D01*
X494325Y554877D01*
X495448Y553197D01*
X525272Y523373D01*
Y522324D01*
X525878Y520063D01*
X527048Y518035D01*
X528703Y516380D01*
X529236Y516073D01*
Y473081D01*
X527429Y472596D01*
X525401Y471426D01*
X523746Y469771D01*
X522576Y467743D01*
X521970Y465482D01*
Y463142D01*
X522576Y460881D01*
X523746Y458853D01*
X525401Y457198D01*
X527429Y456028D01*
X529690Y455422D01*
X532030D01*
X534291Y456028D01*
X536319Y457198D01*
X537974Y458853D01*
X539144Y460881D01*
X539491Y462176D01*
X540795Y462133D01*
X540807Y462073D01*
X541930Y460392D01*
X560984Y441338D01*
X562665Y440215D01*
X564647Y439821D01*
X642329D01*
X644311Y440215D01*
X645991Y441338D01*
X680474Y475821D01*
X694180D01*
X696162Y476215D01*
X697842Y477337D01*
X750325Y529821D01*
X762725D01*
X762886Y529541D01*
X764541Y527886D01*
X766569Y526716D01*
X768830Y526110D01*
X771170D01*
X773431Y526716D01*
X775459Y527886D01*
X777114Y529541D01*
X778284Y531569D01*
X778890Y533830D01*
Y536170D01*
X778284Y538431D01*
X777114Y540459D01*
X775459Y542114D01*
X773431Y543284D01*
X771170Y543890D01*
X768830D01*
X766569Y543284D01*
X764541Y542114D01*
X762886Y540459D01*
X762725Y540179D01*
X748179D01*
X746197Y539785D01*
X744517Y538662D01*
X716029Y510174D01*
X714855Y510660D01*
Y646488D01*
X714461Y648471D01*
X713338Y650151D01*
X706630Y656859D01*
X706890Y657830D01*
Y660170D01*
X706284Y662431D01*
X705114Y664459D01*
X703459Y666114D01*
X701431Y667284D01*
X699170Y667890D01*
X696830D01*
X694569Y667284D01*
X692541Y666114D01*
X690886Y664459D01*
X689716Y662431D01*
X689110Y660170D01*
Y657830D01*
X689716Y655569D01*
X690886Y653541D01*
X692541Y651886D01*
X694569Y650716D01*
X696830Y650110D01*
X698729D01*
X701362Y647477D01*
X700705Y646339D01*
X699416Y646684D01*
X697076D01*
X694815Y646078D01*
X692787Y644908D01*
X691132Y643253D01*
X690454Y642077D01*
X689546D01*
X687564Y641683D01*
X685883Y640560D01*
X685883Y640560D01*
X682907Y637584D01*
X681785Y635904D01*
X681391Y633922D01*
Y630004D01*
X680120Y629478D01*
X679265Y630334D01*
X676975Y631656D01*
X674422Y632340D01*
X671778D01*
X669225Y631656D01*
X666935Y630334D01*
X665066Y628465D01*
X663744Y626175D01*
X663060Y623622D01*
Y620978D01*
X663744Y618425D01*
X665066Y616135D01*
X666935Y614266D01*
X669225Y612944D01*
X671778Y612260D01*
X674422D01*
X676975Y612944D01*
X679265Y614266D01*
X680120Y615122D01*
X681391Y614596D01*
Y612477D01*
X681785Y610495D01*
X682907Y608815D01*
X685201Y606522D01*
Y511753D01*
X684226Y510960D01*
X683140Y511410D01*
X683140Y511569D01*
X683140Y511569D01*
X683140Y511619D01*
Y530740D01*
X663060D01*
Y510660D01*
X681090D01*
X681769Y509390D01*
X681628Y509179D01*
X669000D01*
X667018Y508785D01*
X665338Y507663D01*
X660160Y502485D01*
X658890Y503011D01*
Y504170D01*
X658284Y506431D01*
X657114Y508459D01*
X655459Y510114D01*
X653431Y511284D01*
X651170Y511890D01*
X648830D01*
X648518Y511807D01*
X629179Y531145D01*
Y610725D01*
X629459Y610886D01*
X631114Y612541D01*
X632284Y614569D01*
X632890Y616830D01*
Y619170D01*
X632284Y621431D01*
X631114Y623459D01*
X629459Y625114D01*
X627431Y626284D01*
X625170Y626890D01*
X622830D01*
X620569Y626284D01*
X618541Y625114D01*
X616886Y623459D01*
X615716Y621431D01*
X615110Y619170D01*
Y616830D01*
X615716Y614569D01*
X616886Y612541D01*
X618541Y610886D01*
X618820Y610725D01*
Y529000D01*
X619215Y527018D01*
X620337Y525337D01*
X641193Y504482D01*
X641110Y504170D01*
Y501830D01*
X641716Y499569D01*
X642886Y497541D01*
X644541Y495886D01*
X646569Y494716D01*
X648830Y494110D01*
X649989D01*
X650515Y492840D01*
X631855Y474179D01*
X606465D01*
X606250Y475449D01*
X608463Y477662D01*
X610135Y480558D01*
X611000Y483788D01*
Y487132D01*
X610135Y490362D01*
X608463Y493258D01*
X606098Y495623D01*
X603202Y497295D01*
X602342Y497525D01*
Y498795D01*
X603202Y499025D01*
X606098Y500698D01*
X608463Y503062D01*
X610135Y505958D01*
X611000Y509188D01*
Y512532D01*
X610135Y515762D01*
X608463Y518658D01*
X606098Y521023D01*
X603202Y522695D01*
X602342Y522925D01*
Y524195D01*
X603202Y524426D01*
X606098Y526097D01*
X608463Y528462D01*
X610135Y531358D01*
X611000Y534588D01*
Y537932D01*
X610135Y541162D01*
X608463Y544058D01*
X606098Y546423D01*
X603202Y548094D01*
X602342Y548325D01*
Y549595D01*
X603202Y549826D01*
X606098Y551497D01*
X608463Y553862D01*
X610135Y556758D01*
X611000Y559988D01*
Y563332D01*
X610135Y566562D01*
X608463Y569458D01*
X606098Y571823D01*
X603202Y573494D01*
X599972Y574360D01*
X596628D01*
X593398Y573494D01*
X590502Y571823D01*
X588138Y569458D01*
X586466Y566562D01*
X585600Y563332D01*
Y559988D01*
X586466Y556758D01*
X588138Y553862D01*
X590502Y551497D01*
X593398Y549826D01*
X594258Y549595D01*
Y548325D01*
X593398Y548094D01*
X590502Y546423D01*
X588138Y544058D01*
X586466Y541162D01*
X585600Y537932D01*
Y534588D01*
X586466Y531358D01*
X588138Y528462D01*
X590502Y526097D01*
X593398Y524426D01*
X594258Y524195D01*
Y522925D01*
X593398Y522695D01*
X590502Y521023D01*
X588138Y518658D01*
X586466Y515762D01*
X585600Y512532D01*
Y509188D01*
X586466Y505958D01*
X588138Y503062D01*
X590502Y500698D01*
X593398Y499025D01*
X594258Y498795D01*
Y497525D01*
X593398Y497295D01*
X590502Y495623D01*
X588138Y493258D01*
X586466Y490362D01*
X585600Y487132D01*
Y483788D01*
X586466Y480558D01*
X588138Y477662D01*
X590350Y475449D01*
X590135Y474179D01*
X575179D01*
Y730763D01*
X575678Y731076D01*
X576948Y730375D01*
Y627232D01*
X577293Y625498D01*
X578275Y624027D01*
X580507Y621795D01*
X581978Y620813D01*
X583712Y620468D01*
X590280D01*
X590766Y619295D01*
X590170Y618698D01*
X588832Y616382D01*
X588140Y613798D01*
Y611123D01*
X588832Y608538D01*
X590170Y606222D01*
X592062Y604330D01*
X594378Y602992D01*
X596963Y602300D01*
X599638D01*
X602222Y602992D01*
X604538Y604330D01*
X606430Y606222D01*
X607768Y608538D01*
X608460Y611123D01*
Y613798D01*
X607768Y616382D01*
X606430Y618698D01*
X605834Y619295D01*
X606320Y620468D01*
X611000D01*
X612734Y620813D01*
X614205Y621795D01*
X615187Y623266D01*
X615314Y623905D01*
X622877Y631468D01*
X635468D01*
Y589649D01*
X634541Y589114D01*
X632886Y587459D01*
X631716Y585431D01*
X631110Y583170D01*
Y580830D01*
X631716Y578569D01*
X632886Y576541D01*
X634541Y574886D01*
X636569Y573716D01*
X638830Y573110D01*
X641170D01*
X643431Y573716D01*
X645459Y574886D01*
X647114Y576541D01*
X648284Y578569D01*
X648890Y580830D01*
Y583170D01*
X648284Y585431D01*
X647114Y587459D01*
X645459Y589114D01*
X644532Y589649D01*
Y633768D01*
X644187Y635503D01*
X643205Y636973D01*
X640973Y639205D01*
X639502Y640187D01*
X637768Y640532D01*
X621000D01*
X619266Y640187D01*
X617795Y639205D01*
X617795Y639205D01*
X608123Y629532D01*
X606137D01*
X605611Y630802D01*
X606430Y631622D01*
X607768Y633938D01*
X608460Y636522D01*
Y639198D01*
X607768Y641782D01*
X606430Y644098D01*
X604538Y645990D01*
X602222Y647328D01*
X599638Y648020D01*
X596963D01*
X594378Y647328D01*
X592062Y645990D01*
X590170Y644098D01*
X588832Y641782D01*
X588140Y639198D01*
Y636522D01*
X588832Y633938D01*
X590170Y631622D01*
X590990Y630802D01*
X590463Y629532D01*
X586012D01*
Y656603D01*
X587282Y656943D01*
X588138Y655462D01*
X590502Y653098D01*
X593398Y651425D01*
X596628Y650560D01*
X599972D01*
X603202Y651425D01*
X606098Y653098D01*
X608463Y655462D01*
X610135Y658358D01*
X611000Y661588D01*
Y663265D01*
X617768Y670033D01*
X619038Y669507D01*
Y659400D01*
X618541Y659114D01*
X616886Y657459D01*
X615716Y655431D01*
X615110Y653170D01*
Y650830D01*
X615716Y648569D01*
X616886Y646541D01*
X618541Y644886D01*
X620569Y643716D01*
X622830Y643110D01*
X625170D01*
X627431Y643716D01*
X629459Y644886D01*
X631114Y646541D01*
X632284Y648569D01*
X632890Y650830D01*
Y653170D01*
X632284Y655431D01*
X631114Y657459D01*
X629459Y659114D01*
X628102Y659897D01*
Y668693D01*
X662951Y703542D01*
X663968Y702762D01*
X663744Y702375D01*
X663060Y699822D01*
Y697178D01*
X663744Y694625D01*
X665066Y692335D01*
X666935Y690466D01*
X669225Y689144D01*
X671778Y688460D01*
X674422D01*
X676975Y689144D01*
X679265Y690466D01*
X681134Y692335D01*
X682456Y694625D01*
X683140Y697178D01*
Y699822D01*
X682456Y702375D01*
X681134Y704665D01*
X679265Y706534D01*
X676975Y707856D01*
X674422Y708540D01*
X671778D01*
X669225Y707856D01*
X668838Y707632D01*
X668058Y708649D01*
X693322Y733913D01*
X694461Y733255D01*
X694192Y732253D01*
Y729912D01*
X694798Y727651D01*
X695968Y725624D01*
X697624Y723969D01*
X698468Y723481D01*
Y692232D01*
X698813Y690498D01*
X699795Y689027D01*
X702027Y686795D01*
X703497Y685813D01*
X705232Y685468D01*
X753621D01*
X753735Y685193D01*
X754021Y684198D01*
X752924Y682298D01*
X752318Y680037D01*
Y677696D01*
X752924Y675435D01*
X754094Y673408D01*
X755750Y671753D01*
X757777Y670583D01*
X760038Y669977D01*
X762378D01*
X764640Y670583D01*
X765978Y671355D01*
X766189Y671313D01*
X768408Y669094D01*
X768408Y669094D01*
X768466Y669055D01*
X789726Y647795D01*
Y510232D01*
X790071Y508498D01*
X791053Y507027D01*
X793285Y504795D01*
X794755Y503813D01*
X796490Y503468D01*
X980440D01*
X982174Y503813D01*
X983645Y504795D01*
X991265Y512415D01*
X992247Y513886D01*
X992592Y515620D01*
Y671108D01*
X1066771D01*
X1067306Y670181D01*
X1068961Y668526D01*
X1070989Y667356D01*
X1073250Y666750D01*
X1075590D01*
X1077851Y667356D01*
X1079879Y668526D01*
X1081534Y670181D01*
X1082704Y672209D01*
X1083211Y674098D01*
X1084481Y673931D01*
Y493805D01*
X1004855Y414179D01*
X400865D01*
X349480Y465565D01*
Y473786D01*
X352098Y475298D01*
X354463Y477662D01*
X356134Y480558D01*
X357000Y483788D01*
Y487132D01*
X356217Y490052D01*
X385139Y518974D01*
X385193Y518920D01*
X387221Y517750D01*
X389482Y517144D01*
X391822D01*
X394083Y517750D01*
X396111Y518920D01*
X397766Y520575D01*
X398936Y522603D01*
X399542Y524864D01*
Y527204D01*
X398936Y529465D01*
X397766Y531493D01*
X396111Y533148D01*
X394083Y534318D01*
X391822Y534924D01*
X389482D01*
X387221Y534318D01*
X385193Y533148D01*
X383538Y531493D01*
X382421Y529558D01*
X381434Y529361D01*
X379753Y528238D01*
X357441Y505926D01*
X356302Y506583D01*
X357000Y509188D01*
Y512532D01*
X356134Y515762D01*
X354463Y518658D01*
X352098Y521023D01*
X349202Y522695D01*
X345972Y523560D01*
X342628D01*
X339398Y522695D01*
X336502Y521023D01*
X334137Y518658D01*
X332466Y515762D01*
X331600Y512532D01*
Y509188D01*
X332298Y506583D01*
X331159Y505926D01*
X313535Y523549D01*
Y861232D01*
X314806Y861572D01*
X315466Y860427D01*
X317121Y858772D01*
X319149Y857602D01*
X321310Y857023D01*
Y865886D01*
X322580D01*
Y867156D01*
X331443D01*
X330864Y869317D01*
X329694Y871345D01*
X328328Y872710D01*
X328737Y873980D01*
X335793D01*
X336279Y872807D01*
X336170Y872698D01*
X334832Y870382D01*
X334140Y867798D01*
Y865123D01*
X334832Y862538D01*
X336170Y860222D01*
X338062Y858330D01*
X340378Y856992D01*
X342962Y856300D01*
X345638D01*
X348222Y856992D01*
X350538Y858330D01*
X352430Y860222D01*
X353768Y862538D01*
X354460Y865123D01*
Y867798D01*
X353768Y870382D01*
X352430Y872698D01*
X352321Y872807D01*
X352807Y873980D01*
X356512D01*
X357246Y872710D01*
D02*
G37*
G36*
X553871Y756413D02*
X553761Y756248D01*
X553367Y754266D01*
Y733806D01*
X553761Y731824D01*
X554883Y730144D01*
X556669Y728359D01*
Y664345D01*
X555398Y663726D01*
X553849Y664620D01*
X551588Y665226D01*
X549248D01*
X548936Y665143D01*
X543699Y670380D01*
X543005Y670844D01*
X542844Y672479D01*
X543055Y672689D01*
X544226Y674717D01*
X544831Y676978D01*
Y679318D01*
X544226Y681579D01*
X543055Y683607D01*
X541400Y685262D01*
X539373Y686432D01*
X537112Y687038D01*
X534771D01*
X532510Y686432D01*
X530993Y685556D01*
X464274Y752275D01*
X465054Y753291D01*
X465199Y753208D01*
X467460Y752602D01*
X469800D01*
X472061Y753208D01*
X474089Y754378D01*
X475744Y756033D01*
X476279Y756960D01*
X551185D01*
X552919Y757305D01*
X552956Y757329D01*
X553871Y756413D01*
D02*
G37*
G36*
X413145Y838354D02*
X412136Y837345D01*
X411013Y835664D01*
X410619Y833682D01*
Y769366D01*
X411013Y767384D01*
X412136Y765704D01*
X435693Y742146D01*
X435068Y740975D01*
X433578Y741272D01*
X424597D01*
X424436Y741551D01*
X422781Y743206D01*
X420753Y744376D01*
X418492Y744982D01*
X416152D01*
X413891Y744376D01*
X411863Y743206D01*
X410208Y741551D01*
X409328Y740026D01*
X408869Y739935D01*
X407924Y740049D01*
X406910Y741805D01*
X405255Y743460D01*
X404976Y743621D01*
Y839624D01*
X412619D01*
X413145Y838354D01*
D02*
G37*
G36*
X374748Y863471D02*
X375918Y861443D01*
X377573Y859788D01*
X377853Y859627D01*
Y744569D01*
X376811Y743968D01*
X375156Y742313D01*
X373986Y740285D01*
X373979Y740258D01*
X372664D01*
X372520Y740793D01*
X371350Y742821D01*
X369695Y744476D01*
X369416Y744637D01*
Y860350D01*
X370203Y860804D01*
X371858Y862459D01*
X373028Y864487D01*
X373094Y864734D01*
X374409D01*
X374748Y863471D01*
D02*
G37*
G36*
X709574Y704886D02*
X711601Y703716D01*
X713862Y703110D01*
X715421D01*
X721235Y697295D01*
X722706Y696313D01*
X724440Y695968D01*
X763587D01*
X763698Y695802D01*
X763019Y694532D01*
X707532D01*
Y705132D01*
X708802Y705658D01*
X709574Y704886D01*
D02*
G37*
G36*
X542134Y652905D02*
X543304Y650877D01*
X544959Y649222D01*
X546987Y648052D01*
X549248Y647446D01*
X551588D01*
X553849Y648052D01*
X555398Y648946D01*
X556669Y648327D01*
Y638822D01*
X555495Y638336D01*
X553899Y639933D01*
X552218Y641055D01*
X550236Y641450D01*
X505341D01*
X504722Y642719D01*
X505616Y644269D01*
X506222Y646530D01*
Y648459D01*
X507446Y648981D01*
X508810Y647617D01*
X510837Y646447D01*
X513098Y645841D01*
X515439D01*
X517700Y646447D01*
X519727Y647617D01*
X521382Y649272D01*
X522471Y651158D01*
X523084Y651259D01*
X523842Y651202D01*
X524762Y649607D01*
X526417Y647952D01*
X528445Y646782D01*
X530706Y646176D01*
X533046D01*
X535307Y646782D01*
X537335Y647952D01*
X538990Y649607D01*
X540160Y651635D01*
X540660Y653499D01*
X541975D01*
X542134Y652905D01*
D02*
G37*
G36*
X1097365Y712157D02*
Y400125D01*
X304885D01*
Y515891D01*
X306058Y516377D01*
X332383Y490052D01*
X331600Y487132D01*
Y483788D01*
X332466Y480558D01*
X334137Y477662D01*
X336502Y475298D01*
X339120Y473786D01*
Y463420D01*
X339515Y461438D01*
X340638Y459757D01*
X395057Y405337D01*
X396738Y404215D01*
X398720Y403820D01*
X398720Y403820D01*
X1007000D01*
X1008982Y404215D01*
X1010663Y405337D01*
X1093323Y487998D01*
X1094445Y489678D01*
X1094839Y491660D01*
Y711545D01*
X1095119Y711706D01*
X1096095Y712683D01*
X1097365Y712157D01*
D02*
G37*
%LPC*%
G36*
X845312Y1234440D02*
X836422D01*
Y1225550D01*
X836490D01*
X839074Y1226242D01*
X841390Y1227580D01*
X843282Y1229472D01*
X844620Y1231788D01*
X845312Y1234372D01*
Y1234440D01*
D02*
G37*
G36*
X833882D02*
X824992D01*
Y1234372D01*
X825684Y1231788D01*
X827022Y1229472D01*
X828914Y1227580D01*
X831230Y1226242D01*
X833814Y1225550D01*
X833882D01*
Y1234440D01*
D02*
G37*
G36*
X1001863Y1219091D02*
Y1211301D01*
X1009653D01*
X1009055Y1213536D01*
X1007859Y1215606D01*
X1006169Y1217297D01*
X1004098Y1218492D01*
X1001863Y1219091D01*
D02*
G37*
G36*
X999323D02*
X997089Y1218492D01*
X995018Y1217297D01*
X993328Y1215606D01*
X992132Y1213536D01*
X991533Y1211301D01*
X999323D01*
Y1219091D01*
D02*
G37*
G36*
X1009653Y1208761D02*
X1001863D01*
Y1200971D01*
X1004098Y1201570D01*
X1006169Y1202765D01*
X1007859Y1204456D01*
X1009055Y1206526D01*
X1009653Y1208761D01*
D02*
G37*
G36*
X999323D02*
X991533D01*
X992132Y1206526D01*
X993328Y1204456D01*
X995018Y1202765D01*
X997089Y1201570D01*
X999323Y1200971D01*
Y1208761D01*
D02*
G37*
G36*
X1069673Y1219111D02*
X1051513D01*
Y1200951D01*
X1069673D01*
Y1219111D01*
D02*
G37*
G36*
X1041789D02*
X1039398D01*
X1037089Y1218492D01*
X1035018Y1217297D01*
X1033327Y1215606D01*
X1032132Y1213536D01*
X1031513Y1211227D01*
Y1208836D01*
X1032132Y1206526D01*
X1033327Y1204456D01*
X1035018Y1202765D01*
X1037089Y1201570D01*
X1039398Y1200951D01*
X1041789D01*
X1044098Y1201570D01*
X1046169Y1202765D01*
X1047859Y1204456D01*
X1049054Y1206526D01*
X1049673Y1208836D01*
Y1211227D01*
X1049054Y1213536D01*
X1047859Y1215606D01*
X1046169Y1217297D01*
X1044098Y1218492D01*
X1041789Y1219111D01*
D02*
G37*
G36*
X1021789D02*
X1019398D01*
X1017089Y1218492D01*
X1015018Y1217297D01*
X1013327Y1215606D01*
X1012132Y1213536D01*
X1011513Y1211227D01*
Y1208836D01*
X1012132Y1206526D01*
X1013327Y1204456D01*
X1015018Y1202765D01*
X1017089Y1201570D01*
X1019398Y1200951D01*
X1021789D01*
X1024098Y1201570D01*
X1026169Y1202765D01*
X1027859Y1204456D01*
X1029055Y1206526D01*
X1029673Y1208836D01*
Y1211227D01*
X1029055Y1213536D01*
X1027859Y1215606D01*
X1026169Y1217297D01*
X1024098Y1218492D01*
X1021789Y1219111D01*
D02*
G37*
G36*
X564918Y1209350D02*
X564570D01*
Y1198330D01*
X575590D01*
Y1198678D01*
X574752Y1201804D01*
X573134Y1204606D01*
X570846Y1206894D01*
X568044Y1208512D01*
X564918Y1209350D01*
D02*
G37*
G36*
X562030D02*
X561682D01*
X558556Y1208512D01*
X555754Y1206894D01*
X553465Y1204606D01*
X551847Y1201804D01*
X551010Y1198678D01*
Y1198330D01*
X562030D01*
Y1209350D01*
D02*
G37*
G36*
X466147Y1220975D02*
X462913D01*
X459742Y1220344D01*
X456754Y1219107D01*
X454066Y1217310D01*
X451780Y1215024D01*
X449983Y1212335D01*
X448746Y1209348D01*
X448115Y1206177D01*
Y1202943D01*
X448746Y1199772D01*
X449983Y1196785D01*
X451780Y1194096D01*
X454066Y1191810D01*
X456754Y1190013D01*
X459742Y1188776D01*
X462913Y1188145D01*
X466147D01*
X469318Y1188776D01*
X472305Y1190013D01*
X474994Y1191810D01*
X477280Y1194096D01*
X479077Y1196785D01*
X480314Y1199772D01*
X480945Y1202943D01*
Y1206177D01*
X480314Y1209348D01*
X479077Y1212335D01*
X477280Y1215024D01*
X474994Y1217310D01*
X472305Y1219107D01*
X469318Y1220344D01*
X466147Y1220975D01*
D02*
G37*
G36*
X575590Y1195790D02*
X564570D01*
Y1184770D01*
X564918D01*
X568044Y1185607D01*
X570846Y1187225D01*
X573134Y1189514D01*
X574752Y1192316D01*
X575590Y1195442D01*
Y1195790D01*
D02*
G37*
G36*
X562030D02*
X551010D01*
Y1195442D01*
X551847Y1192316D01*
X553465Y1189514D01*
X555754Y1187225D01*
X558556Y1185607D01*
X561682Y1184770D01*
X562030D01*
Y1195790D01*
D02*
G37*
G36*
X525590Y1209350D02*
X501010D01*
Y1184770D01*
X525590D01*
Y1209350D01*
D02*
G37*
G36*
X480945Y1150975D02*
X448115D01*
Y1118145D01*
X480945D01*
Y1150975D01*
D02*
G37*
G36*
X1001320Y1109090D02*
Y1101300D01*
X1009110D01*
X1008512Y1103534D01*
X1007316Y1105605D01*
X1005626Y1107296D01*
X1003555Y1108491D01*
X1001320Y1109090D01*
D02*
G37*
G36*
X998780D02*
X996546Y1108491D01*
X994475Y1107296D01*
X992785Y1105605D01*
X991589Y1103534D01*
X990990Y1101300D01*
X998780D01*
Y1109090D01*
D02*
G37*
G36*
X1009110Y1098760D02*
X1001320D01*
Y1090970D01*
X1003555Y1091569D01*
X1005626Y1092764D01*
X1007316Y1094455D01*
X1008512Y1096525D01*
X1009110Y1098760D01*
D02*
G37*
G36*
X998780D02*
X990990D01*
X991589Y1096525D01*
X992785Y1094455D01*
X994475Y1092764D01*
X996546Y1091569D01*
X998780Y1090970D01*
Y1098760D01*
D02*
G37*
G36*
X1041246Y1109110D02*
X1038855D01*
X1036546Y1108491D01*
X1034475Y1107296D01*
X1032785Y1105605D01*
X1031589Y1103534D01*
X1030970Y1101225D01*
Y1098834D01*
X1031589Y1096525D01*
X1032785Y1094455D01*
X1034475Y1092764D01*
X1036546Y1091569D01*
X1038855Y1090950D01*
X1041246D01*
X1043555Y1091569D01*
X1045626Y1092764D01*
X1047316Y1094455D01*
X1048512Y1096525D01*
X1049130Y1098834D01*
Y1101225D01*
X1048512Y1103534D01*
X1047316Y1105605D01*
X1045626Y1107296D01*
X1043555Y1108491D01*
X1041246Y1109110D01*
D02*
G37*
G36*
X1021246D02*
X1018855D01*
X1016546Y1108491D01*
X1014475Y1107296D01*
X1012785Y1105605D01*
X1011589Y1103534D01*
X1010970Y1101225D01*
Y1098834D01*
X1011589Y1096525D01*
X1012785Y1094455D01*
X1014475Y1092764D01*
X1016546Y1091569D01*
X1018855Y1090950D01*
X1021246D01*
X1023555Y1091569D01*
X1025626Y1092764D01*
X1027316Y1094455D01*
X1028512Y1096525D01*
X1029130Y1098834D01*
Y1101225D01*
X1028512Y1103534D01*
X1027316Y1105605D01*
X1025626Y1107296D01*
X1023555Y1108491D01*
X1021246Y1109110D01*
D02*
G37*
G36*
X511964Y994664D02*
X509624D01*
X507363Y994058D01*
X505335Y992888D01*
X503680Y991233D01*
X503145Y990306D01*
X427736D01*
X427736Y990306D01*
X426002Y989961D01*
X424531Y988979D01*
X392856Y957303D01*
X391822Y957580D01*
X389482D01*
X387221Y956974D01*
X385193Y955804D01*
X383538Y954149D01*
X382368Y952121D01*
X381762Y949860D01*
Y947520D01*
X382368Y945259D01*
X383538Y943231D01*
X385193Y941576D01*
X387221Y940406D01*
X389482Y939800D01*
X391822D01*
X394083Y940406D01*
X396111Y941576D01*
X397766Y943231D01*
X398936Y945259D01*
X399542Y947520D01*
Y949860D01*
X399265Y950894D01*
X429613Y981242D01*
X503145D01*
X503680Y980315D01*
X505335Y978660D01*
X507363Y977490D01*
X509624Y976884D01*
X511964D01*
X514225Y977490D01*
X516253Y978660D01*
X517908Y980315D01*
X519078Y982343D01*
X519684Y984604D01*
Y986944D01*
X519078Y989205D01*
X517908Y991233D01*
X516253Y992888D01*
X514225Y994058D01*
X511964Y994664D01*
D02*
G37*
G36*
X826747Y990854D02*
X826516D01*
Y976884D01*
X840486D01*
Y977115D01*
X839900Y980059D01*
X838752Y982833D01*
X837084Y985329D01*
X834961Y987452D01*
X832465Y989119D01*
X829691Y990268D01*
X826747Y990854D01*
D02*
G37*
G36*
X823976D02*
X823745D01*
X820801Y990268D01*
X818027Y989119D01*
X815531Y987452D01*
X813408Y985329D01*
X811740Y982833D01*
X810592Y980059D01*
X810006Y977115D01*
Y976884D01*
X823976D01*
Y990854D01*
D02*
G37*
G36*
X342235Y1012180D02*
X338485D01*
X334806Y1011448D01*
X331341Y1010013D01*
X328223Y1007929D01*
X325571Y1005277D01*
X323487Y1002159D01*
X322052Y998694D01*
X321320Y995015D01*
Y991265D01*
X322052Y987586D01*
X323487Y984121D01*
X325571Y981003D01*
X328223Y978351D01*
X331341Y976267D01*
X334806Y974832D01*
X338485Y974100D01*
X342235D01*
X345914Y974832D01*
X349379Y976267D01*
X352497Y978351D01*
X355149Y981003D01*
X357233Y984121D01*
X358668Y987586D01*
X359400Y991265D01*
Y995015D01*
X358668Y998694D01*
X357233Y1002159D01*
X355149Y1005277D01*
X352497Y1007929D01*
X349379Y1010013D01*
X345914Y1011448D01*
X342235Y1012180D01*
D02*
G37*
G36*
X1063875Y1012040D02*
X1060125D01*
X1056446Y1011308D01*
X1052981Y1009873D01*
X1049863Y1007789D01*
X1047211Y1005137D01*
X1045127Y1002019D01*
X1043692Y998554D01*
X1042960Y994875D01*
Y991124D01*
X1043692Y987446D01*
X1045127Y983981D01*
X1047211Y980863D01*
X1049863Y978211D01*
X1052981Y976127D01*
X1056446Y974691D01*
X1060125Y973960D01*
X1063875D01*
X1067554Y974691D01*
X1071019Y976127D01*
X1074137Y978211D01*
X1076789Y980863D01*
X1078873Y983981D01*
X1080308Y987446D01*
X1081040Y991124D01*
Y994875D01*
X1080308Y998554D01*
X1078873Y1002019D01*
X1076789Y1005137D01*
X1074137Y1007789D01*
X1071019Y1009873D01*
X1067554Y1011308D01*
X1063875Y1012040D01*
D02*
G37*
G36*
X840486Y974344D02*
X826516D01*
Y960374D01*
X826747D01*
X829691Y960960D01*
X832465Y962109D01*
X834961Y963776D01*
X837084Y965899D01*
X838752Y968395D01*
X839900Y971169D01*
X840486Y974113D01*
Y974344D01*
D02*
G37*
G36*
X823976D02*
X810006D01*
Y974113D01*
X810592Y971169D01*
X811740Y968395D01*
X813408Y965899D01*
X815531Y963776D01*
X818027Y962109D01*
X820801Y960960D01*
X823745Y960374D01*
X823976D01*
Y974344D01*
D02*
G37*
G36*
X1044501Y939240D02*
X1044270D01*
Y925270D01*
X1058240D01*
Y925501D01*
X1057654Y928445D01*
X1056506Y931219D01*
X1054838Y933715D01*
X1052715Y935838D01*
X1050219Y937505D01*
X1047445Y938654D01*
X1044501Y939240D01*
D02*
G37*
G36*
X1041730D02*
X1041499D01*
X1038555Y938654D01*
X1035781Y937505D01*
X1033285Y935838D01*
X1031162Y933715D01*
X1029494Y931219D01*
X1028346Y928445D01*
X1027760Y925501D01*
Y925270D01*
X1041730D01*
Y939240D01*
D02*
G37*
G36*
X933450Y925803D02*
Y918210D01*
X941043D01*
X940464Y920371D01*
X939294Y922399D01*
X937639Y924054D01*
X935611Y925224D01*
X933450Y925803D01*
D02*
G37*
G36*
X930910D02*
X928749Y925224D01*
X926721Y924054D01*
X925066Y922399D01*
X923896Y920371D01*
X923317Y918210D01*
X930910D01*
Y925803D01*
D02*
G37*
G36*
X1058240Y922730D02*
X1044270D01*
Y908760D01*
X1044501D01*
X1047445Y909346D01*
X1050219Y910495D01*
X1052715Y912162D01*
X1054838Y914285D01*
X1056506Y916781D01*
X1057654Y919555D01*
X1058240Y922499D01*
Y922730D01*
D02*
G37*
G36*
X1041730D02*
X1027760D01*
Y922499D01*
X1028346Y919555D01*
X1029494Y916781D01*
X1031162Y914285D01*
X1033285Y912162D01*
X1035781Y910495D01*
X1038555Y909346D01*
X1041499Y908760D01*
X1041730D01*
Y922730D01*
D02*
G37*
G36*
X941043Y915670D02*
X933450D01*
Y908077D01*
X935611Y908656D01*
X937639Y909826D01*
X939294Y911481D01*
X940464Y913509D01*
X941043Y915670D01*
D02*
G37*
G36*
X930910D02*
X923317D01*
X923896Y913509D01*
X925066Y911481D01*
X926721Y909826D01*
X928749Y908656D01*
X930910Y908077D01*
Y915670D01*
D02*
G37*
G36*
X731116Y902734D02*
X723523D01*
Y895141D01*
X725685Y895720D01*
X727712Y896890D01*
X729367Y898546D01*
X730537Y900573D01*
X731116Y902734D01*
D02*
G37*
G36*
X973990Y969010D02*
X971650D01*
X969389Y968404D01*
X967361Y967234D01*
X965706Y965579D01*
X964536Y963551D01*
X963930Y961290D01*
Y958950D01*
X964536Y956689D01*
X965706Y954661D01*
X967361Y953006D01*
X969389Y951836D01*
X971650Y951230D01*
X973990D01*
X974302Y951313D01*
X1011228Y914387D01*
Y910758D01*
X1010949Y910596D01*
X1009294Y908941D01*
X1008124Y906914D01*
X1007518Y904653D01*
Y902312D01*
X1008124Y900051D01*
X1009294Y898024D01*
X1010949Y896369D01*
X1012977Y895198D01*
X1015238Y894593D01*
X1017578D01*
X1019839Y895198D01*
X1021867Y896369D01*
X1023522Y898024D01*
X1024692Y900051D01*
X1025298Y902312D01*
Y904653D01*
X1024692Y906914D01*
X1023522Y908941D01*
X1021867Y910596D01*
X1021587Y910758D01*
Y916532D01*
X1021193Y918514D01*
X1020070Y920195D01*
X981627Y958638D01*
X981710Y958950D01*
Y961290D01*
X981104Y963551D01*
X979934Y965579D01*
X978279Y967234D01*
X976251Y968404D01*
X973990Y969010D01*
D02*
G37*
G36*
X599638Y876620D02*
X596963D01*
X594378Y875928D01*
X592062Y874590D01*
X590170Y872698D01*
X588832Y870382D01*
X588140Y867798D01*
Y865123D01*
X588832Y862538D01*
X590170Y860222D01*
X592062Y858330D01*
X594378Y856992D01*
X596963Y856300D01*
X599638D01*
X602222Y856992D01*
X604538Y858330D01*
X606430Y860222D01*
X607768Y862538D01*
X608460Y865123D01*
Y867798D01*
X607768Y870382D01*
X606430Y872698D01*
X604538Y874590D01*
X602222Y875928D01*
X599638Y876620D01*
D02*
G37*
G36*
X578275Y854726D02*
X575934D01*
X573673Y854120D01*
X571646Y852950D01*
X569990Y851295D01*
X568820Y849268D01*
X568214Y847007D01*
Y844666D01*
X568223Y844634D01*
X549574Y825985D01*
X548540Y826262D01*
X546200D01*
X543939Y825656D01*
X541911Y824486D01*
X540256Y822831D01*
X539086Y820803D01*
X538480Y818542D01*
Y816202D01*
X539086Y813941D01*
X540256Y811913D01*
X541720Y810450D01*
X541450Y809180D01*
X524275D01*
X524114Y809459D01*
X522459Y811114D01*
X520431Y812284D01*
X518170Y812890D01*
X515830D01*
X513569Y812284D01*
X511541Y811114D01*
X509886Y809459D01*
X508716Y807431D01*
X508110Y805170D01*
Y802830D01*
X508716Y800569D01*
X509886Y798541D01*
X511541Y796886D01*
X513569Y795716D01*
X515830Y795110D01*
X518170D01*
X520431Y795716D01*
X522459Y796886D01*
X524114Y798541D01*
X524275Y798820D01*
X568680D01*
X570662Y799215D01*
X572342Y800338D01*
X586967Y814962D01*
X588140Y814476D01*
Y814323D01*
X588832Y811738D01*
X590170Y809422D01*
X592062Y807530D01*
X594378Y806192D01*
X596963Y805500D01*
X599638D01*
X602222Y806192D01*
X604538Y807530D01*
X606430Y809422D01*
X607768Y811738D01*
X608460Y814323D01*
Y816998D01*
X607768Y819582D01*
X606505Y821768D01*
X606801Y822795D01*
X606902Y823038D01*
X615437D01*
X617419Y823433D01*
X619100Y824556D01*
X626394Y831850D01*
X628170D01*
X630431Y832456D01*
X632459Y833626D01*
X634114Y835281D01*
X635284Y837309D01*
X635890Y839570D01*
Y841910D01*
X635284Y844171D01*
X634114Y846199D01*
X632459Y847854D01*
X630431Y849024D01*
X628170Y849630D01*
X625830D01*
X623569Y849024D01*
X621541Y847854D01*
X619886Y846199D01*
X618716Y844171D01*
X618110Y841910D01*
Y839570D01*
X618396Y838502D01*
X613292Y833398D01*
X606665D01*
X606179Y834571D01*
X606430Y834822D01*
X607768Y837138D01*
X608460Y839723D01*
Y842398D01*
X607768Y844982D01*
X606430Y847298D01*
X604538Y849190D01*
X602222Y850528D01*
X599638Y851220D01*
X596963D01*
X594378Y850528D01*
X592062Y849190D01*
X590170Y847298D01*
X588832Y844982D01*
X588140Y842398D01*
Y839723D01*
X588832Y837138D01*
X590170Y834822D01*
X590718Y834274D01*
X590454Y832742D01*
X589377Y832022D01*
X566534Y809180D01*
X553290D01*
X553020Y810450D01*
X554484Y811913D01*
X555654Y813941D01*
X556260Y816202D01*
Y818542D01*
X555983Y819576D01*
X573899Y837492D01*
X575934Y836946D01*
X578275D01*
X580536Y837552D01*
X582563Y838722D01*
X584218Y840378D01*
X585388Y842405D01*
X585994Y844666D01*
Y847007D01*
X585388Y849268D01*
X584218Y851295D01*
X582563Y852950D01*
X580536Y854120D01*
X578275Y854726D01*
D02*
G37*
G36*
X599638Y749620D02*
X596963D01*
X594378Y748928D01*
X592062Y747590D01*
X590170Y745698D01*
X588832Y743382D01*
X588140Y740798D01*
Y738122D01*
X588832Y735538D01*
X590170Y733222D01*
X592062Y731330D01*
X594378Y729992D01*
X596963Y729300D01*
X599638D01*
X602222Y729992D01*
X604538Y731330D01*
X606430Y733222D01*
X607768Y735538D01*
X608460Y738122D01*
Y740798D01*
X607768Y743382D01*
X606430Y745698D01*
X604538Y747590D01*
X602222Y748928D01*
X599638Y749620D01*
D02*
G37*
G36*
Y724220D02*
X596963D01*
X594378Y723528D01*
X592062Y722190D01*
X590170Y720298D01*
X588832Y717982D01*
X588140Y715398D01*
Y712722D01*
X588832Y710138D01*
X590170Y707822D01*
X592062Y705930D01*
X594378Y704592D01*
X596963Y703900D01*
X599638D01*
X602222Y704592D01*
X604538Y705930D01*
X606430Y707822D01*
X607768Y710138D01*
X608460Y712722D01*
Y715398D01*
X607768Y717982D01*
X606430Y720298D01*
X604538Y722190D01*
X602222Y723528D01*
X599638Y724220D01*
D02*
G37*
G36*
X331443Y864616D02*
X323850D01*
Y857023D01*
X326011Y857602D01*
X328039Y858772D01*
X329694Y860427D01*
X330864Y862455D01*
X331443Y864616D01*
D02*
G37*
G36*
X345638Y851220D02*
X342962D01*
X340378Y850528D01*
X338062Y849190D01*
X336170Y847298D01*
X334832Y844982D01*
X334140Y842398D01*
Y839723D01*
X334832Y837138D01*
X336170Y834822D01*
X338062Y832930D01*
X340378Y831592D01*
X342962Y830900D01*
X345638D01*
X348222Y831592D01*
X350538Y832930D01*
X352430Y834822D01*
X353768Y837138D01*
X354460Y839723D01*
Y842398D01*
X353768Y844982D01*
X352430Y847298D01*
X350538Y849190D01*
X348222Y850528D01*
X345638Y851220D01*
D02*
G37*
G36*
X345972Y828360D02*
X342628D01*
X339398Y827495D01*
X336502Y825823D01*
X334137Y823458D01*
X332466Y820562D01*
X331600Y817332D01*
Y813988D01*
X332466Y810758D01*
X334137Y807862D01*
X336502Y805498D01*
X339398Y803826D01*
X340258Y803595D01*
Y802325D01*
X339398Y802094D01*
X336502Y800423D01*
X334137Y798058D01*
X332466Y795162D01*
X331600Y791932D01*
Y788588D01*
X332466Y785358D01*
X334137Y782462D01*
X336502Y780098D01*
X339398Y778426D01*
X342628Y777560D01*
X345972D01*
X349202Y778426D01*
X352098Y780098D01*
X354463Y782462D01*
X356134Y785358D01*
X357000Y788588D01*
Y791932D01*
X356134Y795162D01*
X354463Y798058D01*
X352098Y800423D01*
X349202Y802094D01*
X348342Y802325D01*
Y803595D01*
X349202Y803826D01*
X352098Y805498D01*
X354463Y807862D01*
X356134Y810758D01*
X357000Y813988D01*
Y817332D01*
X356134Y820562D01*
X354463Y823458D01*
X352098Y825823D01*
X349202Y827495D01*
X345972Y828360D01*
D02*
G37*
G36*
X345638Y775020D02*
X342962D01*
X340378Y774328D01*
X338062Y772990D01*
X336170Y771098D01*
X334832Y768782D01*
X334140Y766198D01*
Y763522D01*
X334832Y760938D01*
X336170Y758622D01*
X338062Y756730D01*
X340378Y755392D01*
X342962Y754700D01*
X345638D01*
X348222Y755392D01*
X350538Y756730D01*
X352430Y758622D01*
X353768Y760938D01*
X354460Y763522D01*
Y766198D01*
X353768Y768782D01*
X352430Y771098D01*
X350538Y772990D01*
X348222Y774328D01*
X345638Y775020D01*
D02*
G37*
G36*
X674422Y683140D02*
X674370D01*
Y674370D01*
X683140D01*
Y674422D01*
X682456Y676975D01*
X681134Y679265D01*
X679265Y681134D01*
X676975Y682456D01*
X674422Y683140D01*
D02*
G37*
G36*
X671830D02*
X671778D01*
X669225Y682456D01*
X666935Y681134D01*
X665066Y679265D01*
X663744Y676975D01*
X663060Y674422D01*
Y674370D01*
X671830D01*
Y683140D01*
D02*
G37*
G36*
X683140Y671830D02*
X674370D01*
Y663060D01*
X674422D01*
X676975Y663744D01*
X679265Y665066D01*
X681134Y666935D01*
X682456Y669225D01*
X683140Y671778D01*
Y671830D01*
D02*
G37*
G36*
X671830D02*
X663060D01*
Y671778D01*
X663744Y669225D01*
X665066Y666935D01*
X666935Y665066D01*
X669225Y663744D01*
X671778Y663060D01*
X671830D01*
Y671830D01*
D02*
G37*
G36*
X674422Y657740D02*
X671778D01*
X669225Y657056D01*
X666935Y655734D01*
X665066Y653865D01*
X663744Y651575D01*
X663060Y649022D01*
Y646378D01*
X663744Y643825D01*
X665066Y641535D01*
X666935Y639666D01*
X669225Y638344D01*
X671778Y637660D01*
X674422D01*
X676975Y638344D01*
X679265Y639666D01*
X681134Y641535D01*
X682456Y643825D01*
X683140Y646378D01*
Y649022D01*
X682456Y651575D01*
X681134Y653865D01*
X679265Y655734D01*
X676975Y657056D01*
X674422Y657740D01*
D02*
G37*
G36*
X1065447Y653346D02*
X1040867D01*
Y628767D01*
X1065447D01*
Y653346D01*
D02*
G37*
G36*
X345638Y622620D02*
X345570D01*
Y613730D01*
X354460D01*
Y613798D01*
X353768Y616382D01*
X352430Y618698D01*
X350538Y620590D01*
X348222Y621928D01*
X345638Y622620D01*
D02*
G37*
G36*
X343030D02*
X342962D01*
X340378Y621928D01*
X338062Y620590D01*
X336170Y618698D01*
X334832Y616382D01*
X334140Y613798D01*
Y613730D01*
X343030D01*
Y622620D01*
D02*
G37*
G36*
X354460Y611190D02*
X345570D01*
Y602300D01*
X345638D01*
X348222Y602992D01*
X350538Y604330D01*
X352430Y606222D01*
X353768Y608538D01*
X354460Y611123D01*
Y611190D01*
D02*
G37*
G36*
X343030D02*
X334140D01*
Y611123D01*
X334832Y608538D01*
X336170Y606222D01*
X338062Y604330D01*
X340378Y602992D01*
X342962Y602300D01*
X343030D01*
Y611190D01*
D02*
G37*
G36*
X1054775Y603347D02*
X1054427D01*
Y592327D01*
X1065447D01*
Y592675D01*
X1064610Y595800D01*
X1062991Y598603D01*
X1060703Y600891D01*
X1057901Y602509D01*
X1054775Y603347D01*
D02*
G37*
G36*
X1051887D02*
X1051539D01*
X1048413Y602509D01*
X1045611Y600891D01*
X1043323Y598603D01*
X1041705Y595800D01*
X1040867Y592675D01*
Y592327D01*
X1051887D01*
Y603347D01*
D02*
G37*
G36*
X457962Y599667D02*
Y592074D01*
X465555D01*
X464976Y594235D01*
X463806Y596263D01*
X462151Y597918D01*
X460123Y599088D01*
X457962Y599667D01*
D02*
G37*
G36*
X674422Y606940D02*
X671778D01*
X669225Y606256D01*
X666935Y604934D01*
X665066Y603065D01*
X663744Y600775D01*
X663060Y598222D01*
Y595578D01*
X663744Y593025D01*
X665066Y590735D01*
X666935Y588866D01*
X669225Y587544D01*
X671778Y586860D01*
X674422D01*
X676975Y587544D01*
X679265Y588866D01*
X681134Y590735D01*
X682456Y593025D01*
X683140Y595578D01*
Y598222D01*
X682456Y600775D01*
X681134Y603065D01*
X679265Y604934D01*
X676975Y606256D01*
X674422Y606940D01*
D02*
G37*
G36*
X465555Y589534D02*
X457962D01*
Y581941D01*
X460123Y582520D01*
X462151Y583690D01*
X463806Y585345D01*
X464976Y587373D01*
X465555Y589534D01*
D02*
G37*
G36*
X455422D02*
X447829D01*
X448408Y587373D01*
X449578Y585345D01*
X451233Y583690D01*
X453261Y582520D01*
X455422Y581941D01*
Y589534D01*
D02*
G37*
G36*
X1065447Y589787D02*
X1054427D01*
Y578767D01*
X1054775D01*
X1057901Y579604D01*
X1060703Y581222D01*
X1062991Y583510D01*
X1064610Y586313D01*
X1065447Y589439D01*
Y589787D01*
D02*
G37*
G36*
X1051887D02*
X1040867D01*
Y589439D01*
X1041705Y586313D01*
X1043323Y583510D01*
X1045611Y581222D01*
X1048413Y579604D01*
X1051539Y578767D01*
X1051887D01*
Y589787D01*
D02*
G37*
G36*
X599638Y597220D02*
X596963D01*
X594378Y596528D01*
X592062Y595190D01*
X590170Y593298D01*
X588832Y590982D01*
X588140Y588398D01*
Y585723D01*
X588832Y583138D01*
X590170Y580822D01*
X592062Y578930D01*
X594378Y577592D01*
X596963Y576900D01*
X599638D01*
X602222Y577592D01*
X604538Y578930D01*
X606430Y580822D01*
X607768Y583138D01*
X608460Y585723D01*
Y588398D01*
X607768Y590982D01*
X606430Y593298D01*
X604538Y595190D01*
X602222Y596528D01*
X599638Y597220D01*
D02*
G37*
G36*
X345638D02*
X342962D01*
X340378Y596528D01*
X338062Y595190D01*
X336170Y593298D01*
X334832Y590982D01*
X334140Y588398D01*
Y585723D01*
X334832Y583138D01*
X336170Y580822D01*
X338062Y578930D01*
X340378Y577592D01*
X342962Y576900D01*
X345638D01*
X348222Y577592D01*
X350538Y578930D01*
X352430Y580822D01*
X353768Y583138D01*
X354460Y585723D01*
Y588398D01*
X353768Y590982D01*
X352430Y593298D01*
X350538Y595190D01*
X348222Y596528D01*
X345638Y597220D01*
D02*
G37*
G36*
X674422Y581540D02*
X671778D01*
X669225Y580856D01*
X666935Y579534D01*
X665066Y577665D01*
X663744Y575375D01*
X663060Y572822D01*
Y570178D01*
X663744Y567625D01*
X665066Y565335D01*
X666935Y563466D01*
X669225Y562144D01*
X671778Y561460D01*
X674422D01*
X676975Y562144D01*
X679265Y563466D01*
X681134Y565335D01*
X682456Y567625D01*
X683140Y570178D01*
Y572822D01*
X682456Y575375D01*
X681134Y577665D01*
X679265Y579534D01*
X676975Y580856D01*
X674422Y581540D01*
D02*
G37*
G36*
X345638Y571820D02*
X342962D01*
X340378Y571128D01*
X338062Y569790D01*
X336170Y567898D01*
X334832Y565582D01*
X334140Y562998D01*
Y560322D01*
X334832Y557738D01*
X336170Y555422D01*
X338062Y553530D01*
X340378Y552192D01*
X342962Y551500D01*
X345638D01*
X348222Y552192D01*
X350538Y553530D01*
X352430Y555422D01*
X353768Y557738D01*
X354460Y560322D01*
Y562998D01*
X353768Y565582D01*
X352430Y567898D01*
X350538Y569790D01*
X348222Y571128D01*
X345638Y571820D01*
D02*
G37*
G36*
X674422Y556140D02*
X671778D01*
X669225Y555456D01*
X666935Y554134D01*
X665066Y552265D01*
X663744Y549975D01*
X663060Y547422D01*
Y544778D01*
X663744Y542225D01*
X665066Y539935D01*
X666935Y538066D01*
X669225Y536744D01*
X671778Y536060D01*
X674422D01*
X676975Y536744D01*
X679265Y538066D01*
X681134Y539935D01*
X682456Y542225D01*
X683140Y544778D01*
Y547422D01*
X682456Y549975D01*
X681134Y552265D01*
X679265Y554134D01*
X676975Y555456D01*
X674422Y556140D01*
D02*
G37*
G36*
X345638Y546420D02*
X342962D01*
X340378Y545728D01*
X338062Y544390D01*
X336170Y542498D01*
X334832Y540182D01*
X334140Y537598D01*
Y534922D01*
X334832Y532338D01*
X336170Y530022D01*
X338062Y528130D01*
X340378Y526792D01*
X342962Y526100D01*
X345638D01*
X348222Y526792D01*
X350538Y528130D01*
X352430Y530022D01*
X353768Y532338D01*
X354460Y534922D01*
Y537598D01*
X353768Y540182D01*
X352430Y542498D01*
X350538Y544390D01*
X348222Y545728D01*
X345638Y546420D01*
D02*
G37*
G36*
X1065447Y544933D02*
X1040867D01*
Y520353D01*
X1065447D01*
Y544933D01*
D02*
G37*
G36*
X391922Y513561D02*
Y505968D01*
X399515D01*
X398936Y508129D01*
X397766Y510157D01*
X396111Y511812D01*
X394083Y512982D01*
X391922Y513561D01*
D02*
G37*
G36*
X389382D02*
X387221Y512982D01*
X385193Y511812D01*
X383538Y510157D01*
X382368Y508129D01*
X381789Y505968D01*
X389382D01*
Y513561D01*
D02*
G37*
G36*
X513842Y510259D02*
Y502666D01*
X521435D01*
X520856Y504827D01*
X519686Y506855D01*
X518031Y508510D01*
X516003Y509680D01*
X513842Y510259D01*
D02*
G37*
G36*
X511302D02*
X509141Y509680D01*
X507113Y508510D01*
X505458Y506855D01*
X504288Y504827D01*
X503709Y502666D01*
X511302D01*
Y510259D01*
D02*
G37*
G36*
X399515Y503428D02*
X391922D01*
Y495835D01*
X394083Y496414D01*
X396111Y497584D01*
X397766Y499239D01*
X398936Y501267D01*
X399515Y503428D01*
D02*
G37*
G36*
X389382D02*
X381789D01*
X382368Y501267D01*
X383538Y499239D01*
X385193Y497584D01*
X387221Y496414D01*
X389382Y495835D01*
Y503428D01*
D02*
G37*
G36*
X521435Y500126D02*
X513842D01*
Y492533D01*
X516003Y493112D01*
X518031Y494282D01*
X519686Y495937D01*
X520856Y497965D01*
X521435Y500126D01*
D02*
G37*
G36*
X511302D02*
X503709D01*
X504288Y497965D01*
X505458Y495937D01*
X507113Y494282D01*
X509141Y493112D01*
X511302Y492533D01*
Y500126D01*
D02*
G37*
G36*
X452274Y503174D02*
X449934D01*
X447673Y502568D01*
X445645Y501398D01*
X443990Y499743D01*
X442820Y497715D01*
X442214Y495454D01*
Y493114D01*
X442820Y490853D01*
X443990Y488825D01*
X445645Y487170D01*
X447673Y486000D01*
X449934Y485394D01*
X452274D01*
X454535Y486000D01*
X456563Y487170D01*
X458218Y488825D01*
X458379Y489104D01*
X479222D01*
X479537Y488558D01*
X481192Y486903D01*
X483219Y485733D01*
X485480Y485127D01*
X487821D01*
X490082Y485733D01*
X492109Y486903D01*
X493765Y488558D01*
X494935Y490585D01*
X495541Y492846D01*
Y495187D01*
X494935Y497448D01*
X493765Y499475D01*
X492109Y501131D01*
X490082Y502301D01*
X487821Y502907D01*
X485480D01*
X483219Y502301D01*
X481192Y501131D01*
X479537Y499475D01*
X479530Y499464D01*
X458379D01*
X458218Y499743D01*
X456563Y501398D01*
X454535Y502568D01*
X452274Y503174D01*
D02*
G37*
G36*
X1054775Y494933D02*
X1054427D01*
Y483913D01*
X1065447D01*
Y484261D01*
X1064610Y487386D01*
X1062992Y490189D01*
X1060703Y492477D01*
X1057901Y494095D01*
X1054775Y494933D01*
D02*
G37*
G36*
X1051887D02*
X1051539D01*
X1048413Y494095D01*
X1045611Y492477D01*
X1043323Y490189D01*
X1041705Y487386D01*
X1040867Y484261D01*
Y483913D01*
X1051887D01*
Y494933D01*
D02*
G37*
G36*
X1065447Y481373D02*
X1054427D01*
Y470353D01*
X1054775D01*
X1057901Y471190D01*
X1060703Y472808D01*
X1062992Y475096D01*
X1064610Y477899D01*
X1065447Y481025D01*
Y481373D01*
D02*
G37*
G36*
X1051887D02*
X1040867D01*
Y481025D01*
X1041705Y477899D01*
X1043323Y475096D01*
X1045611Y472808D01*
X1048413Y471190D01*
X1051539Y470353D01*
X1051887D01*
Y481373D01*
D02*
G37*
G36*
X907636Y456790D02*
X907288D01*
Y445770D01*
X918308D01*
Y446118D01*
X917470Y449244D01*
X915852Y452046D01*
X913564Y454334D01*
X910762Y455952D01*
X907636Y456790D01*
D02*
G37*
G36*
X690758D02*
X690410D01*
Y445770D01*
X701430D01*
Y446118D01*
X700593Y449244D01*
X698975Y452046D01*
X696686Y454334D01*
X693884Y455952D01*
X690758Y456790D01*
D02*
G37*
G36*
X799178D02*
X798830D01*
Y445770D01*
X809850D01*
Y446118D01*
X809013Y449244D01*
X807394Y452046D01*
X805106Y454334D01*
X802304Y455952D01*
X799178Y456790D01*
D02*
G37*
G36*
X904748D02*
X904400D01*
X901274Y455952D01*
X898472Y454334D01*
X896184Y452046D01*
X894566Y449244D01*
X893728Y446118D01*
Y445770D01*
X904748D01*
Y456790D01*
D02*
G37*
G36*
X687870D02*
X687522D01*
X684396Y455952D01*
X681594Y454334D01*
X679306Y452046D01*
X677688Y449244D01*
X676850Y446118D01*
Y445770D01*
X687870D01*
Y456790D01*
D02*
G37*
G36*
X796290D02*
X795942D01*
X792816Y455952D01*
X790014Y454334D01*
X787726Y452046D01*
X786107Y449244D01*
X785270Y446118D01*
Y445770D01*
X796290D01*
Y456790D01*
D02*
G37*
G36*
X968308D02*
X943728D01*
Y432210D01*
X968308D01*
Y456790D01*
D02*
G37*
G36*
X918308Y443230D02*
X907288D01*
Y432210D01*
X907636D01*
X910762Y433047D01*
X913564Y434666D01*
X915852Y436954D01*
X917470Y439756D01*
X918308Y442882D01*
Y443230D01*
D02*
G37*
G36*
X904748D02*
X893728D01*
Y442882D01*
X894566Y439756D01*
X896184Y436954D01*
X898472Y434666D01*
X901274Y433047D01*
X904400Y432210D01*
X904748D01*
Y443230D01*
D02*
G37*
G36*
X859850Y456790D02*
X835270D01*
Y432210D01*
X859850D01*
Y456790D01*
D02*
G37*
G36*
X809850Y443230D02*
X798830D01*
Y432210D01*
X799178D01*
X802304Y433047D01*
X805106Y434666D01*
X807394Y436954D01*
X809013Y439756D01*
X809850Y442882D01*
Y443230D01*
D02*
G37*
G36*
X796290D02*
X785270D01*
Y442882D01*
X786107Y439756D01*
X787726Y436954D01*
X790014Y434666D01*
X792816Y433047D01*
X795942Y432210D01*
X796290D01*
Y443230D01*
D02*
G37*
G36*
X751430Y456790D02*
X726850D01*
Y432210D01*
X751430D01*
Y456790D01*
D02*
G37*
G36*
X701430Y443230D02*
X690410D01*
Y432210D01*
X690758D01*
X693884Y433047D01*
X696686Y434666D01*
X698975Y436954D01*
X700593Y439756D01*
X701430Y442882D01*
Y443230D01*
D02*
G37*
G36*
X687870D02*
X676850D01*
Y442882D01*
X677688Y439756D01*
X679306Y436954D01*
X681594Y434666D01*
X684396Y433047D01*
X687522Y432210D01*
X687870D01*
Y443230D01*
D02*
G37*
G36*
X342235Y443982D02*
X338485D01*
X334806Y443250D01*
X331341Y441815D01*
X328223Y439731D01*
X325571Y437079D01*
X323487Y433961D01*
X322052Y430496D01*
X321320Y426817D01*
Y423067D01*
X322052Y419388D01*
X323487Y415923D01*
X325571Y412805D01*
X328223Y410153D01*
X331341Y408069D01*
X334806Y406634D01*
X338485Y405902D01*
X342235D01*
X345914Y406634D01*
X349379Y408069D01*
X352497Y410153D01*
X355149Y412805D01*
X357233Y415923D01*
X358668Y419388D01*
X359400Y423067D01*
Y426817D01*
X358668Y430496D01*
X357233Y433961D01*
X355149Y437079D01*
X352497Y439731D01*
X349379Y441815D01*
X345914Y443250D01*
X342235Y443982D01*
D02*
G37*
G36*
X1063875Y443040D02*
X1060125D01*
X1056446Y442309D01*
X1052981Y440873D01*
X1049863Y438789D01*
X1047211Y436138D01*
X1045127Y433019D01*
X1043692Y429554D01*
X1042960Y425875D01*
Y422125D01*
X1043692Y418446D01*
X1045127Y414981D01*
X1047211Y411863D01*
X1049863Y409211D01*
X1052981Y407127D01*
X1056446Y405692D01*
X1060125Y404960D01*
X1063875D01*
X1067554Y405692D01*
X1071019Y407127D01*
X1074137Y409211D01*
X1076789Y411863D01*
X1078873Y414981D01*
X1080308Y418446D01*
X1081040Y422125D01*
Y425875D01*
X1080308Y429554D01*
X1078873Y433019D01*
X1076789Y436138D01*
X1074137Y438789D01*
X1071019Y440873D01*
X1067554Y442309D01*
X1063875Y443040D01*
D02*
G37*
%LPD*%
D13*
X623570Y652430D02*
X624000Y652000D01*
X959366Y1208804D02*
X960593Y1210031D01*
D64*
X802132Y925576D02*
X802386Y925322D01*
X844042D01*
X845000Y702000D02*
X859536Y716536D01*
Y925576D01*
X919480Y985520D01*
X844042Y925322D02*
X916940Y998220D01*
X1010920D01*
X1079500Y1066800D01*
Y1102640D01*
X1042600Y1139540D02*
X1079500Y1102640D01*
X1029862Y1139540D02*
X1042600D01*
X1026788Y1142613D02*
X1029862Y1139540D01*
X808000Y702000D02*
X845000D01*
X805000Y705000D02*
X808000Y702000D01*
X919480Y985520D02*
X1016000D01*
X1069597Y1126912D02*
X1093630Y1102879D01*
Y1063150D02*
Y1102879D01*
X1016000Y985520D02*
X1093630Y1063150D01*
X1069597Y1126912D02*
Y1140203D01*
X1066800Y1143000D02*
X1069597Y1140203D01*
D65*
X446000Y763224D02*
Y775000D01*
Y763224D02*
X529618Y679606D01*
X398576Y625276D02*
X399774Y624078D01*
X418592D01*
X344300Y637860D02*
X402157D01*
X403747Y636270D01*
X532476Y523494D02*
X534162D01*
X499110Y556860D02*
X532476Y523494D01*
X530860Y464312D02*
Y466374D01*
X534416Y469930D01*
Y523240D01*
X545592Y464055D02*
Y602742D01*
X528320Y620014D02*
X545592Y602742D01*
Y464055D02*
X564647Y445000D01*
X550236Y636270D02*
X553212Y633294D01*
Y467211D02*
Y633294D01*
Y467211D02*
X566663Y453760D01*
X403747Y636270D02*
X550236D01*
X344300Y663260D02*
X359860Y647700D01*
X497332D01*
X561848Y469352D02*
Y730504D01*
X558546Y754266D02*
X569140Y764860D01*
X558546Y733806D02*
X561848Y730504D01*
X558546Y733806D02*
Y754266D01*
X570000Y738630D02*
X570685Y739315D01*
X570000Y471976D02*
Y738630D01*
X561848Y469352D02*
X569819Y461380D01*
X531207Y666718D02*
X540036D01*
X550418Y656336D01*
X572976Y469000D02*
X634000D01*
X570000Y471976D02*
X572976Y469000D01*
X688007Y496380D02*
X700278Y508651D01*
X698246Y616966D02*
X699704Y615508D01*
Y610754D02*
Y615508D01*
X700278Y508651D02*
Y610180D01*
X699704Y610754D02*
X700278Y610180D01*
X690380Y509529D02*
Y608667D01*
X686570Y612477D02*
X690380Y608667D01*
X686570Y612477D02*
Y633922D01*
X691163Y488760D02*
X709676Y507273D01*
X698000Y658165D02*
X709676Y646488D01*
Y507273D02*
Y646488D01*
X686570Y633922D02*
X689546Y636898D01*
X697350D02*
X698246Y637794D01*
X684851Y504000D02*
X690380Y509529D01*
X669000Y504000D02*
X684851D01*
X689546Y636898D02*
X697350D01*
X698000Y658165D02*
Y659000D01*
X433578Y736092D02*
X514269Y655401D01*
X417322Y736092D02*
X433578D01*
X415798Y769366D02*
Y833682D01*
X530098Y655066D02*
X531876D01*
X415798Y769366D02*
X530098Y655066D01*
X514269Y654731D02*
Y655401D01*
X534483Y679606D02*
X535941Y678148D01*
X529618Y679606D02*
X534483D01*
X431800Y766125D02*
X531207Y666718D01*
X431800Y766125D02*
Y819222D01*
X389194Y524576D02*
X390652Y526034D01*
X383416Y524576D02*
X389194D01*
X344300Y485460D02*
X383416Y524576D01*
X748179Y535000D02*
X770000D01*
X383032Y737616D02*
Y866902D01*
X382270Y736854D02*
X383032Y737616D01*
X364236Y867410D02*
X364744Y867918D01*
X364236Y737362D02*
Y867410D01*
X499110Y556860D02*
Y602742D01*
X308356Y521404D02*
Y876184D01*
X311332Y879160D01*
X360244D01*
X363220Y960374D02*
X406146Y1003300D01*
X360244Y879160D02*
X363220Y882136D01*
Y960374D01*
X308356Y521404D02*
X344300Y485460D01*
X311160Y942000D02*
X311820Y942660D01*
X344300D01*
X628142Y816356D02*
X642366Y830580D01*
Y921466D01*
X633872Y929960D02*
X642366Y921466D01*
X451104Y494284D02*
X486384D01*
X486651Y494017D01*
X418592Y624078D02*
X441510Y601160D01*
Y601160D02*
Y601160D01*
X399796Y736346D02*
Y841828D01*
X402772Y844804D01*
X418030Y835914D02*
X504698D01*
X415798Y833682D02*
X418030Y835914D01*
X624155Y731189D02*
Y758521D01*
X624586Y758952D01*
X402772Y844804D02*
X502812D01*
X587968Y929960D02*
X633872D01*
X502812Y844804D02*
X587968Y929960D01*
X504698Y835914D02*
X586044Y917260D01*
X598300D01*
X431800Y819222D02*
X434776Y822198D01*
X528638D01*
X598300Y891860D01*
X627380Y816356D02*
X628142D01*
X615437Y828218D02*
X627000Y839781D01*
Y840740D01*
X517000Y804000D02*
X568680D01*
X603560Y828360D02*
X603703Y828218D01*
X593040Y828360D02*
X603560D01*
X603703Y828218D02*
X615437D01*
X670560Y891540D02*
Y1024672D01*
X990000Y1175000D02*
X996100Y1181100D01*
X990000Y1158000D02*
Y1175000D01*
X996100Y1181100D02*
X1084580D01*
X694180Y481000D02*
X748179Y535000D01*
X568680Y804000D02*
X593040Y828360D01*
X564647Y445000D02*
X642329D01*
X678329Y481000D02*
X694180D01*
X642329Y445000D02*
X678329Y481000D01*
X675313Y488760D02*
X691163D01*
X672156Y496380D02*
X688007D01*
X566663Y453760D02*
X640313D01*
X675313Y488760D01*
X637156Y461380D02*
X672156Y496380D01*
X569819Y461380D02*
X637156D01*
X634000Y469000D02*
X669000Y504000D01*
X624000Y529000D02*
X650000Y503000D01*
X624000Y529000D02*
Y618000D01*
X1089660Y491660D02*
Y718820D01*
X398720Y409000D02*
X1007000D01*
X1089660Y491660D01*
X344300Y463420D02*
X398720Y409000D01*
X670560Y1024672D02*
X672048Y1026160D01*
X894755Y690205D02*
X909320Y675640D01*
X894080Y690205D02*
X894755D01*
X909320Y617220D02*
Y675640D01*
X924560Y1026160D02*
X947420Y1049020D01*
X1016408Y903483D02*
Y916532D01*
X972820Y960120D02*
X1016408Y916532D01*
X672048Y1026160D02*
X924560D01*
X1089660Y1160780D02*
Y1176020D01*
X1084580Y1181100D02*
X1089660Y1176020D01*
X344300Y463420D02*
Y485460D01*
D66*
X715033Y709907D02*
X724440Y700500D01*
X715033Y709907D02*
Y712000D01*
X724440Y700500D02*
X766604D01*
X786638Y680466D01*
X853466D01*
X781884Y674116D02*
X859116D01*
X886000Y701000D01*
X853466Y680466D02*
X884825Y711825D01*
X766000Y690000D02*
X781884Y674116D01*
X841128Y908304D02*
X844176Y905256D01*
X788696Y908304D02*
X841128D01*
X771932Y925068D02*
X788696Y908304D01*
X844176Y905256D02*
X846582D01*
X767842Y918718D02*
X784606Y901954D01*
X833950D01*
X840983Y894921D01*
X820420Y867420D02*
Y884936D01*
X623570Y670570D02*
X820420Y867420D01*
X846836Y865378D02*
Y889254D01*
X841170Y894921D02*
X846836Y889254D01*
X840983Y894921D02*
X841170D01*
X534162Y542290D02*
Y562610D01*
X525167Y571605D02*
X534162Y562610D01*
X516636Y784352D02*
X578358D01*
X584708Y778002D01*
X581480Y627232D02*
X583712Y625000D01*
X578075Y775655D02*
X581480Y772250D01*
Y627232D02*
Y772250D01*
X583712Y625000D02*
X611000D01*
X794258Y510232D02*
X796490Y508000D01*
X771632Y672299D02*
X794258Y649673D01*
Y510232D02*
Y649673D01*
X796490Y508000D02*
X980440D01*
X719778Y918718D02*
X767842D01*
X699000Y897940D02*
X719778Y918718D01*
X706994Y925068D02*
X771932D01*
X698926Y917000D02*
X706994Y925068D01*
X698000Y917000D02*
X698926D01*
X517376Y554758D02*
X518922Y553212D01*
X517376Y554758D02*
Y561108D01*
X511556Y566928D02*
X517376Y561108D01*
X511556Y566928D02*
Y585216D01*
X427736Y985774D02*
X510794D01*
X390652Y948690D02*
X427736Y985774D01*
X573532Y1010158D02*
X620014Y1056640D01*
X540004Y975614D02*
X575564D01*
X573519Y988835D02*
X574953Y990269D01*
X641350Y1041400D02*
X901421D01*
X575564Y975614D02*
X641350Y1041400D01*
X574953Y990269D02*
X579551D01*
X638302Y1049020D02*
X886460Y1049020D01*
X579551Y990269D02*
X638302Y1049020D01*
X539750Y975360D02*
X540004Y975614D01*
X644144Y1033780D02*
X913801D01*
X573532Y963168D02*
X644144Y1033780D01*
X913801D02*
X980051Y1100030D01*
X620014Y1056640D02*
X881380D01*
X883920Y1059180D02*
Y1140460D01*
X881380Y1056640D02*
X883920Y1059180D01*
X886460Y1049020D02*
X891540Y1054100D01*
Y1135380D01*
X955040Y1198880D01*
X969442D01*
X980593Y1210031D01*
X657352Y965962D02*
X657606Y965708D01*
Y716280D02*
Y965708D01*
X638302D02*
X651256Y952754D01*
X598300Y688660D02*
X651256Y741616D01*
Y952754D01*
X607745Y666419D02*
X657606Y716280D01*
X601459Y666419D02*
X607745D01*
X598300Y663260D02*
X601459Y666419D01*
X623570Y652430D02*
Y670570D01*
X511556Y585216D02*
X523494Y597154D01*
X525167Y571605D02*
Y577701D01*
X523494Y579374D02*
X525167Y577701D01*
X547370Y817372D02*
X575834Y845836D01*
X577104D01*
X766746Y675734D02*
X768177D01*
X763614Y678867D02*
X766746Y675734D01*
X761208Y678867D02*
X763614D01*
X768177Y675734D02*
X771612Y672299D01*
X771632D01*
X551185Y761492D02*
X553925Y764232D01*
X468630Y761492D02*
X551185D01*
X584708Y778002D02*
X611886D01*
X622000Y788116D01*
Y790000D01*
X556157Y775655D02*
X578075D01*
X553925Y764232D02*
Y773423D01*
X556157Y775655D01*
X611000Y625000D02*
Y626000D01*
X621000Y636000D01*
X640000Y582000D02*
Y633768D01*
X637768Y636000D02*
X640000Y633768D01*
X621000Y636000D02*
X637768D01*
X884825Y711825D02*
X952666D01*
X953636Y712795D01*
X978326Y710326D02*
X980000Y712000D01*
X886000Y701000D02*
X976094D01*
X978326Y703232D02*
Y710326D01*
X976094Y701000D02*
X978326Y703232D01*
X703000Y731000D02*
X703082Y731082D01*
X703000Y692232D02*
Y731000D01*
X705232Y690000D02*
X766000D01*
X703000Y692232D02*
X705232Y690000D01*
X980440Y508000D02*
X988060Y515620D01*
X990292Y675640D02*
X1074420D01*
X988060Y515620D02*
Y673408D01*
X990292Y675640D01*
X901421Y1041400D02*
X960051Y1100030D01*
X883920Y1140460D02*
X952264Y1208804D01*
X959366D01*
D69*
X892000Y910000D02*
X923000Y941000D01*
X892000Y743613D02*
Y910000D01*
X906443Y729170D02*
X907404D01*
X892000Y743613D02*
X906443Y729170D01*
D74*
X598300Y942660D02*
D03*
Y917260D02*
D03*
Y891860D02*
D03*
Y866460D02*
D03*
Y841060D02*
D03*
Y815660D02*
D03*
Y790260D02*
D03*
Y764860D02*
D03*
Y739460D02*
D03*
Y714060D02*
D03*
Y688660D02*
D03*
Y637860D02*
D03*
Y612460D02*
D03*
Y587060D02*
D03*
X344300Y536260D02*
D03*
Y561660D02*
D03*
Y587060D02*
D03*
Y612460D02*
D03*
Y739460D02*
D03*
Y764860D02*
D03*
Y841060D02*
D03*
Y866460D02*
D03*
Y891860D02*
D03*
X908812Y1235710D02*
D03*
X835152D02*
D03*
D75*
X598300Y663260D02*
D03*
Y561660D02*
D03*
Y536260D02*
D03*
Y510860D02*
D03*
Y485460D02*
D03*
X344300D02*
D03*
Y510860D02*
D03*
Y637860D02*
D03*
Y663260D02*
D03*
Y688660D02*
D03*
Y714060D02*
D03*
Y790260D02*
D03*
Y815660D02*
D03*
Y917260D02*
D03*
D76*
Y942660D02*
D03*
D77*
X340360Y424942D02*
D03*
X1062000Y993000D02*
D03*
X340360Y993140D02*
D03*
X1062000Y424000D02*
D03*
D78*
X1020050Y1100030D02*
D03*
X960051D02*
D03*
X980051D02*
D03*
X1000050D02*
D03*
X1040050D02*
D03*
X1040593Y1210031D02*
D03*
X1000593D02*
D03*
X980593D02*
D03*
X960593D02*
D03*
X1020593D02*
D03*
D79*
X1060050Y1100030D02*
D03*
X1060593Y1210031D02*
D03*
D80*
X464530Y1204560D02*
D03*
D81*
Y1134560D02*
D03*
D82*
X673100Y698500D02*
D03*
Y673100D02*
D03*
Y647700D02*
D03*
Y622300D02*
D03*
Y596900D02*
D03*
Y571500D02*
D03*
Y546100D02*
D03*
D83*
Y520700D02*
D03*
D84*
X1053157Y591057D02*
D03*
X1053157Y482643D02*
D03*
X689140Y444500D02*
D03*
X563300Y1197060D02*
D03*
X906018Y444500D02*
D03*
X797560D02*
D03*
D85*
X1053157Y641057D02*
D03*
X1053157Y532643D02*
D03*
D86*
X739140Y444500D02*
D03*
X513300Y1197060D02*
D03*
X956018Y444500D02*
D03*
X847560D02*
D03*
D87*
X398576Y625276D02*
D03*
X512572Y501396D02*
D03*
X820420Y884936D02*
D03*
X846582Y905256D02*
D03*
X846836Y865378D02*
D03*
X534162Y542290D02*
D03*
Y523494D02*
D03*
X516636Y784352D02*
D03*
X497332Y647700D02*
D03*
X570685Y739315D02*
D03*
X550418Y656336D02*
D03*
X698246Y616966D02*
D03*
Y637794D02*
D03*
X514269Y654731D02*
D03*
X535941Y678148D02*
D03*
X531876Y655066D02*
D03*
X390652Y526034D02*
D03*
X770000Y535000D02*
D03*
X383032Y866902D02*
D03*
X364744Y867918D02*
D03*
X518922Y553212D02*
D03*
X456692Y590804D02*
D03*
X382270Y736854D02*
D03*
X364236Y737362D02*
D03*
X390652Y948690D02*
D03*
X510794Y985774D02*
D03*
X406146Y1003300D02*
D03*
X322580Y865886D02*
D03*
X311160Y942000D02*
D03*
X573532Y1010158D02*
D03*
X573519Y988835D02*
D03*
X539750Y975360D02*
D03*
X573532Y963168D02*
D03*
X657352Y965962D02*
D03*
X638302Y965708D02*
D03*
X499110Y602742D02*
D03*
X523494Y579374D02*
D03*
X486651Y494017D02*
D03*
X390652Y504698D02*
D03*
X451104Y494284D02*
D03*
X441510Y601160D02*
D03*
X530860Y464312D02*
D03*
X528320Y620014D02*
D03*
X523494Y597154D02*
D03*
X417322Y736092D02*
D03*
X399796Y736346D02*
D03*
X624155Y731189D02*
D03*
X624586Y758952D02*
D03*
X577104Y845836D02*
D03*
X547370Y817372D02*
D03*
X761208Y678867D02*
D03*
X446000Y775000D02*
D03*
X627380Y816356D02*
D03*
X627000Y840740D02*
D03*
X517000Y804000D02*
D03*
X468630Y761492D02*
D03*
X569140Y764860D02*
D03*
X670560Y891540D02*
D03*
X715033Y712000D02*
D03*
X722253Y904004D02*
D03*
X990000Y1158000D02*
D03*
X624000Y652000D02*
D03*
X640000Y582000D02*
D03*
X650000Y503000D02*
D03*
X624000Y618000D02*
D03*
X698000Y659000D02*
D03*
X699000Y897940D02*
D03*
X698000Y917000D02*
D03*
X894080Y690205D02*
D03*
X932180Y916940D02*
D03*
X703082Y731082D02*
D03*
X622000Y790000D02*
D03*
X744243Y711997D02*
D03*
X953636Y712795D02*
D03*
X980000Y712000D02*
D03*
X1074420Y675640D02*
D03*
X947420Y1049020D02*
D03*
X972820Y960120D02*
D03*
X1016408Y903483D02*
D03*
X1089660Y1160780D02*
D03*
X909320Y617220D02*
D03*
X1089660Y718820D02*
D03*
D88*
X802132Y925576D02*
D03*
X825246Y975614D02*
D03*
X1043000Y924000D02*
D03*
X1026582Y1143541D02*
D03*
X1066594Y1143929D02*
D03*
X805000Y705000D02*
D03*
X907404Y729170D02*
D03*
X923000Y941000D02*
D03*
M02*
