G04*
G04 #@! TF.GenerationSoftware,Altium Limited,Altium Designer,22.9.1 (49)*
G04*
G04 Layer_Physical_Order=1*
G04 Layer_Color=255*
%FSLAX44Y44*%
%MOMM*%
G71*
G04*
G04 #@! TF.SameCoordinates,66478680-C35E-4369-986B-202EB0108B9E*
G04*
G04*
G04 #@! TF.FilePolarity,Positive*
G04*
G01*
G75*
%ADD13C,0.2540*%
%ADD15R,1.6000X3.2000*%
%ADD16R,0.6000X0.5300*%
%ADD17R,0.9000X1.6000*%
%ADD18R,0.5000X0.4750*%
G04:AMPARAMS|DCode=19|XSize=1.57mm|YSize=0.41mm|CornerRadius=0.0513mm|HoleSize=0mm|Usage=FLASHONLY|Rotation=90.000|XOffset=0mm|YOffset=0mm|HoleType=Round|Shape=RoundedRectangle|*
%AMROUNDEDRECTD19*
21,1,1.5700,0.3075,0,0,90.0*
21,1,1.4675,0.4100,0,0,90.0*
1,1,0.1025,0.1538,0.7338*
1,1,0.1025,0.1538,-0.7338*
1,1,0.1025,-0.1538,-0.7338*
1,1,0.1025,-0.1538,0.7338*
%
%ADD19ROUNDEDRECTD19*%
G04:AMPARAMS|DCode=20|XSize=1.57mm|YSize=0.41mm|CornerRadius=0.0513mm|HoleSize=0mm|Usage=FLASHONLY|Rotation=180.000|XOffset=0mm|YOffset=0mm|HoleType=Round|Shape=RoundedRectangle|*
%AMROUNDEDRECTD20*
21,1,1.5700,0.3075,0,0,180.0*
21,1,1.4675,0.4100,0,0,180.0*
1,1,0.1025,-0.7338,0.1538*
1,1,0.1025,0.7338,0.1538*
1,1,0.1025,0.7338,-0.1538*
1,1,0.1025,-0.7338,-0.1538*
%
%ADD20ROUNDEDRECTD20*%
%ADD21R,0.5588X1.8034*%
%ADD22R,12.5984X7.1882*%
%ADD23R,0.4750X0.5000*%
%ADD24R,0.9000X1.3000*%
G04:AMPARAMS|DCode=25|XSize=1.97mm|YSize=0.6mm|CornerRadius=0.075mm|HoleSize=0mm|Usage=FLASHONLY|Rotation=180.000|XOffset=0mm|YOffset=0mm|HoleType=Round|Shape=RoundedRectangle|*
%AMROUNDEDRECTD25*
21,1,1.9700,0.4500,0,0,180.0*
21,1,1.8200,0.6000,0,0,180.0*
1,1,0.1500,-0.9100,0.2250*
1,1,0.1500,0.9100,0.2250*
1,1,0.1500,0.9100,-0.2250*
1,1,0.1500,-0.9100,-0.2250*
%
%ADD25ROUNDEDRECTD25*%
%ADD26R,0.5300X0.6000*%
%ADD27R,2.2000X1.1000*%
%ADD28R,1.1500X1.1500*%
%ADD29R,1.2500X2.3000*%
%ADD30R,2.9500X3.5000*%
%ADD31R,0.6000X1.2500*%
%ADD64C,0.7620*%
%ADD65C,0.5080*%
%ADD66C,0.3810*%
%ADD67C,1.0160*%
%ADD68C,0.8890*%
%ADD69C,2.0320*%
%ADD70C,1.5240*%
%ADD71C,3.5560*%
%ADD72C,2.7940*%
%ADD73C,6.3500*%
%ADD74C,1.5240*%
%ADD75C,2.0320*%
%ADD76R,2.0320X2.0320*%
%ADD77C,3.3000*%
%ADD78C,1.3080*%
%ADD79R,1.3080X1.3080*%
%ADD80C,2.7750*%
%ADD81R,2.7750X2.7750*%
%ADD82C,1.5000*%
%ADD83R,1.5000X1.5000*%
%ADD84C,1.9500*%
%ADD85R,1.9500X1.9500*%
%ADD86R,1.9500X1.9500*%
%ADD87C,1.2700*%
%ADD88C,2.5400*%
D13*
X622554Y425156D02*
X622950Y424760D01*
X581010Y419951D02*
X582386Y418575D01*
X581010Y419951D02*
Y424536D01*
X582386Y418575D02*
X843487D01*
X580898Y424648D02*
X581010Y424536D01*
X972312Y1041828D02*
X972566Y1042082D01*
X759840Y542840D02*
X772160Y555160D01*
X759840Y505568D02*
Y542840D01*
Y505568D02*
X762488Y502920D01*
X752892Y612140D02*
X754380Y610652D01*
Y499328D02*
Y610652D01*
X722660Y612140D02*
X752892D01*
X742732Y586740D02*
X744220Y585252D01*
X749300Y494248D02*
Y597952D01*
X737652Y574040D02*
X739140Y572552D01*
Y444500D02*
Y572552D01*
X744220Y489168D02*
Y585252D01*
X722660Y586740D02*
X742732D01*
X722660Y599440D02*
X747812D01*
X749300Y597952D01*
X722660Y574040D02*
X737652D01*
X772160Y555160D02*
Y561340D01*
X762488Y502920D02*
X991652D01*
X638000Y515000D02*
Y548000D01*
X443665Y403335D02*
X1024847D01*
X441000Y406000D02*
Y424880D01*
Y406000D02*
X443665Y403335D01*
X488000Y411000D02*
Y424760D01*
X490585Y408415D02*
X1017927D01*
X488000Y411000D02*
X490585Y408415D01*
X543505Y413495D02*
X952707D01*
X541000Y416000D02*
Y424760D01*
Y416000D02*
X543505Y413495D01*
X737512Y424760D02*
X739000Y426248D01*
X622950Y424760D02*
X737512D01*
X739000Y444360D02*
X739140Y444500D01*
X739000Y426248D02*
Y444360D01*
X843487Y418575D02*
X847560Y422648D01*
X1024847Y403335D02*
X1029000Y407488D01*
X1017927Y408415D02*
X1022000Y412488D01*
X952707Y413495D02*
X956780Y417568D01*
X847560Y422648D02*
Y444500D01*
X956780D02*
Y491272D01*
Y417568D02*
Y444500D01*
X1022000Y412488D02*
Y505512D01*
X1029676Y641056D02*
X1053157D01*
X1029000Y407488D02*
Y499512D01*
X1023488Y507000D02*
X1051000D01*
X1022000Y505512D02*
X1023488Y507000D01*
X1030488Y501000D02*
X1072512D01*
X1074000Y502488D01*
X1029000Y499512D02*
X1030488Y501000D01*
X1053157Y509157D02*
Y532643D01*
X1051000Y507000D02*
X1053157Y509157D01*
X1074000Y502488D02*
Y639569D01*
X1053157Y641057D02*
X1072512D01*
X1074000Y639569D01*
X755868Y497840D02*
X999054D01*
X754380Y499328D02*
X755868Y497840D01*
X750788Y492760D02*
X955292D01*
X749300Y494248D02*
X750788Y492760D01*
X745708Y487680D02*
X846072D01*
X744220Y489168D02*
X745708Y487680D01*
X991652Y502920D02*
X993140Y504408D01*
X999054Y497840D02*
X1000542Y499328D01*
X955292Y492760D02*
X956780Y491272D01*
X993140Y504408D02*
Y604520D01*
X1000542Y499328D02*
Y500162D01*
X1000760Y500380D02*
Y530860D01*
X1000542Y500162D02*
X1000760Y500380D01*
X993140Y604520D02*
X1029676Y641056D01*
X1000760Y530860D02*
X1002543Y532643D01*
X1053157D01*
X846072Y487680D02*
X847560Y486192D01*
Y444500D02*
Y486192D01*
X507697Y1046775D02*
X497540D01*
Y1031540D01*
X507697D01*
X497540Y1039157D02*
X502618D01*
X522932Y1031540D02*
X512775D01*
X522932Y1041697D01*
Y1044236D01*
X520393Y1046775D01*
X515314D01*
X512775Y1044236D01*
X528010D02*
X530549Y1046775D01*
X535628D01*
X538167Y1044236D01*
Y1041697D01*
X535628Y1039157D01*
X533088D01*
X535628D01*
X538167Y1036618D01*
Y1034079D01*
X535628Y1031540D01*
X530549D01*
X528010Y1034079D01*
X543245Y1044236D02*
X545784Y1046775D01*
X550863D01*
X553402Y1044236D01*
Y1034079D01*
X550863Y1031540D01*
X545784D01*
X543245Y1034079D01*
Y1044236D01*
X568637Y1046775D02*
X563559Y1044236D01*
X558480Y1039157D01*
Y1034079D01*
X561020Y1031540D01*
X566098D01*
X568637Y1034079D01*
Y1036618D01*
X566098Y1039157D01*
X558480D01*
D15*
X875030Y948074D02*
D03*
Y998074D02*
D03*
X774954Y998182D02*
D03*
Y948182D02*
D03*
D16*
X822960Y623420D02*
D03*
Y614680D02*
D03*
X430784Y929080D02*
D03*
Y937820D02*
D03*
Y986334D02*
D03*
Y977594D02*
D03*
X518414Y516330D02*
D03*
Y525070D02*
D03*
X417322Y524054D02*
D03*
Y515314D02*
D03*
D17*
X826510Y688086D02*
D03*
X857510D02*
D03*
X826764Y661924D02*
D03*
X857764D02*
D03*
X1026752Y1173448D02*
D03*
X1057752D02*
D03*
X1029115Y1061539D02*
D03*
X1060115D02*
D03*
D18*
X944372Y1164376D02*
D03*
Y1154136D02*
D03*
X972312Y1028740D02*
D03*
Y1018500D02*
D03*
X972566Y1051854D02*
D03*
Y1041614D02*
D03*
X968756Y1154898D02*
D03*
Y1165138D02*
D03*
X488000Y424760D02*
D03*
Y435000D02*
D03*
X441000Y424880D02*
D03*
Y435120D02*
D03*
X541000Y424760D02*
D03*
Y435000D02*
D03*
X622554Y425156D02*
D03*
Y435396D02*
D03*
X580898Y434888D02*
D03*
Y424648D02*
D03*
D19*
X451924Y929134D02*
D03*
X458424D02*
D03*
X464924D02*
D03*
X471424D02*
D03*
X477924D02*
D03*
X484424D02*
D03*
X490924D02*
D03*
Y986534D02*
D03*
X484424D02*
D03*
X477924D02*
D03*
X471424D02*
D03*
X464924D02*
D03*
X458424D02*
D03*
X451924D02*
D03*
D20*
X499108Y518628D02*
D03*
Y525128D02*
D03*
Y531628D02*
D03*
Y538128D02*
D03*
Y544628D02*
D03*
Y551128D02*
D03*
Y557628D02*
D03*
Y564128D02*
D03*
Y570628D02*
D03*
Y577128D02*
D03*
X441708D02*
D03*
Y570628D02*
D03*
Y564128D02*
D03*
Y557628D02*
D03*
Y551128D02*
D03*
Y544628D02*
D03*
Y538128D02*
D03*
Y531628D02*
D03*
Y525128D02*
D03*
Y518628D02*
D03*
D21*
X718820Y732536D02*
D03*
X731520D02*
D03*
X744220D02*
D03*
X756920D02*
D03*
X769620D02*
D03*
X782320D02*
D03*
X795020D02*
D03*
X807720D02*
D03*
X820420D02*
D03*
X833120D02*
D03*
Y866140D02*
D03*
X820420D02*
D03*
X807720D02*
D03*
X795020D02*
D03*
X782320D02*
D03*
X769620D02*
D03*
X756920D02*
D03*
X744220D02*
D03*
X731520D02*
D03*
X718820D02*
D03*
X927926Y732536D02*
D03*
X940627D02*
D03*
X953326D02*
D03*
X966027D02*
D03*
X978727D02*
D03*
X991426D02*
D03*
X1004127D02*
D03*
X1016826D02*
D03*
X1029527D02*
D03*
X1042226D02*
D03*
Y866140D02*
D03*
X1029527D02*
D03*
X1016826D02*
D03*
X1004127D02*
D03*
X991426D02*
D03*
X978727D02*
D03*
X966027D02*
D03*
X953326D02*
D03*
X940627D02*
D03*
X927926D02*
D03*
D22*
X775970Y799338D02*
D03*
X985077D02*
D03*
D23*
X627760Y515000D02*
D03*
X638000D02*
D03*
X627760Y548000D02*
D03*
X638000D02*
D03*
X741680Y680720D02*
D03*
X731440D02*
D03*
X940598Y684030D02*
D03*
X950838D02*
D03*
D24*
X947159Y904627D02*
D03*
X966160D02*
D03*
X737920Y904240D02*
D03*
X756920D02*
D03*
D25*
X772160Y561340D02*
D03*
Y574040D02*
D03*
Y586740D02*
D03*
Y599440D02*
D03*
Y612140D02*
D03*
Y624840D02*
D03*
Y637540D02*
D03*
Y650240D02*
D03*
X722660D02*
D03*
Y637540D02*
D03*
Y624840D02*
D03*
Y612140D02*
D03*
Y599440D02*
D03*
Y586740D02*
D03*
Y574040D02*
D03*
Y561340D02*
D03*
D26*
X722780Y975360D02*
D03*
X731520D02*
D03*
X889710Y657860D02*
D03*
X898450D02*
D03*
X923140Y977900D02*
D03*
X914400D02*
D03*
D27*
X958596Y551424D02*
D03*
Y518424D02*
D03*
X921258Y551170D02*
D03*
Y518170D02*
D03*
D28*
X960760Y591820D02*
D03*
X937260D02*
D03*
D29*
X971760Y642620D02*
D03*
X937260D02*
D03*
D30*
X826880Y546100D02*
D03*
X881380D02*
D03*
D31*
X870629Y617695D02*
D03*
X880129D02*
D03*
X889629D02*
D03*
Y642695D02*
D03*
X880129D02*
D03*
X870629D02*
D03*
D64*
X1027050Y1168167D02*
Y1185132D01*
X1040593Y1198675D01*
X1005332Y1172972D02*
X1013460Y1181100D01*
Y1200733D02*
X1020593Y1207866D01*
X1013460Y1181100D02*
Y1200733D01*
X1057752Y1173448D02*
Y1189108D01*
X1060593Y1191949D01*
X946150Y1144778D02*
X966524D01*
X1005332Y1115134D02*
Y1172972D01*
X990360Y1158000D02*
X1005332Y1172972D01*
X880129Y657860D02*
Y676311D01*
X878334Y657860D02*
X880129Y656065D01*
X874270Y661924D02*
X878080Y658114D01*
X919480Y551180D02*
X920086D01*
X921766Y552860D01*
Y572480D01*
X826532Y661692D02*
X826764Y661924D01*
X826532Y648732D02*
Y661692D01*
X817245Y639445D02*
X826532Y648732D01*
X803345Y653345D02*
X817245Y639445D01*
X826256Y688340D02*
X826510Y688086D01*
X817626Y688340D02*
X826256D01*
X813956Y684670D02*
X817626Y688340D01*
X813956Y663956D02*
Y684670D01*
X792480Y655320D02*
X805320D01*
X801624Y623824D02*
X817245Y639445D01*
X801624Y525164D02*
Y623824D01*
X806088Y520700D02*
X850464D01*
X801624Y525164D02*
X806088Y520700D01*
X853440Y566528D02*
X857904Y570992D01*
X924560Y575274D02*
Y626944D01*
X853440Y523676D02*
Y566528D01*
X857904Y570992D02*
X920278D01*
X924560Y575274D01*
X858132Y687463D02*
X868976D01*
X857510Y688086D02*
X858132Y687463D01*
X880129Y676311D02*
Y702329D01*
X868976Y687463D02*
X880129Y676311D01*
X805320Y655320D02*
X811924Y661924D01*
X880129Y653089D02*
Y656065D01*
X857764Y661924D02*
X874270D01*
X976778Y1144778D02*
X990000Y1158000D01*
X966524Y1144778D02*
X976778D01*
X1059899Y1099878D02*
X1060050Y1100030D01*
X966160Y885500D02*
Y904627D01*
X1026582Y1143541D02*
X1026713Y1143672D01*
X1057843Y1155498D02*
X1066594Y1146748D01*
X1026713Y1143672D02*
Y1168197D01*
X1057843Y1155498D02*
Y1169096D01*
X1066594Y1143929D02*
Y1146748D01*
X1026713Y1168197D02*
X1026972Y1168456D01*
X1052775Y1038860D02*
X1060115Y1046200D01*
Y1061539D01*
X1060050Y1061868D02*
Y1100030D01*
X1040593Y1198675D02*
Y1210031D01*
X1060593Y1191949D02*
Y1210031D01*
X756920Y886460D02*
Y904240D01*
X850464Y520700D02*
X853440Y523676D01*
X921584Y629920D02*
X924560Y626944D01*
D65*
X333182Y752160D02*
X413010D01*
X329060Y756282D02*
X333182Y752160D01*
X321440Y716600D02*
X344300Y739460D01*
X321440Y558982D02*
Y716600D01*
X398576Y625276D02*
X399404Y626104D01*
Y735954D01*
X614172Y452000D02*
X620000D01*
X574040D02*
X614172D01*
X536000D02*
X574040D01*
X893081Y974924D02*
X896057Y977900D01*
X914400D01*
X819531Y884047D02*
X820420Y884936D01*
X807720Y881071D02*
X810696Y884047D01*
X819531D01*
X807720Y866140D02*
Y881071D01*
X846582Y893569D02*
Y905256D01*
Y893569D02*
X849558Y890593D01*
X849812Y882973D02*
X937651D01*
X846836Y865378D02*
X848294Y866836D01*
X846836Y879997D02*
X849812Y882973D01*
X846836Y865378D02*
Y879997D01*
X530524Y525070D02*
X532100Y523494D01*
X518414Y525070D02*
X530524D01*
X532100Y523494D02*
X534162D01*
X499080Y647700D02*
X526766Y620014D01*
X497332Y647700D02*
X499080D01*
X530834Y696468D02*
X570738D01*
X526766Y620014D02*
X528320D01*
X570685Y739315D02*
X570758Y739387D01*
X598227D01*
X598300Y739460D01*
X698246Y616966D02*
Y618054D01*
X705032Y624840D01*
X722660D01*
X698246Y637794D02*
X698500Y637540D01*
X722660D01*
X698000Y658165D02*
X705925Y650240D01*
X698000Y658165D02*
Y659000D01*
X705925Y650240D02*
X722660D01*
X535941Y678148D02*
X561347D01*
X564323Y675172D01*
X383540Y548412D02*
Y735584D01*
X390652Y526034D02*
X392714D01*
X394694Y524054D01*
X417322D01*
X390652Y504698D02*
X391323D01*
X401939Y515314D01*
X417322D01*
X483870Y962660D02*
X490924Y955606D01*
X332232Y962660D02*
X430784D01*
X483870D01*
X322834Y953262D02*
X332232Y962660D01*
X1005332Y1115134D02*
X1020050Y1100415D01*
X880129Y657860D02*
X889710D01*
X878334D02*
X880129D01*
X878080Y658114D02*
X878334Y657860D01*
X898450D02*
X914105D01*
X927926Y671682D01*
X770000Y535000D02*
X786024D01*
X789000Y537976D01*
X971760Y642620D02*
Y668706D01*
X904676Y518170D02*
X921258D01*
X901700Y521146D02*
X904676Y518170D01*
X919480Y551180D02*
X955040D01*
X958596Y551424D02*
Y572587D01*
X948917Y582266D02*
X958596Y572587D01*
X980186Y584454D02*
Y609346D01*
Y521156D02*
Y584454D01*
Y609346D02*
X1054100Y683260D01*
X921258Y518180D02*
X977210D01*
X980186Y521156D01*
X971760Y621504D02*
Y642620D01*
X927926Y671682D02*
X968784D01*
X971760Y668706D01*
X822970Y623430D02*
Y629676D01*
X835989Y642695D01*
X870629D01*
X822960Y623420D02*
X822970Y623430D01*
X851336Y629920D02*
X921584D01*
X822960Y550020D02*
X826880Y546100D01*
X822960Y594360D02*
X877153D01*
X727227Y667437D02*
X774229D01*
X777205Y670413D01*
Y709021D01*
X774229Y711997D02*
X777205Y709021D01*
X744243Y711997D02*
X774229D01*
X811924Y661924D02*
X813956Y663956D01*
X820420Y719849D02*
X826510Y713759D01*
Y688086D02*
Y713759D01*
X383032Y866902D02*
X555382D01*
X364744Y867918D02*
Y868811D01*
X376043Y880110D01*
X382270Y736854D02*
X383540Y735584D01*
X364236Y675653D02*
X375920Y663969D01*
X364236Y675653D02*
Y737362D01*
X383866Y942660D02*
X389896Y948690D01*
X359598Y942660D02*
X383866D01*
X389896Y948690D02*
X390652D01*
X426720Y1003300D02*
X447690D01*
X406146D02*
X426720D01*
X311000Y454976D02*
Y941840D01*
Y454976D02*
X313976Y452000D01*
X311000Y941840D02*
X311160Y942000D01*
X322834Y866140D02*
Y953262D01*
X329060Y473384D02*
Y698820D01*
X321310Y465764D02*
Y558852D01*
Y465764D02*
X324540Y462534D01*
X329060Y473384D02*
X332224Y470220D01*
X329060Y849506D02*
X333314Y853760D01*
X598300Y815660D02*
X600244Y813716D01*
X333314Y853760D02*
X553016D01*
X329060Y756282D02*
Y849506D01*
X430784Y910155D02*
X433270Y907669D01*
X430784Y910155D02*
Y929080D01*
X394589Y907669D02*
X433270D01*
X1042226Y866140D02*
Y923226D01*
Y831490D02*
Y866140D01*
X359598Y942660D02*
X394589Y907669D01*
X344300Y942660D02*
X359598D01*
X680988Y929960D02*
X692490Y918458D01*
X593040Y929960D02*
X680988D01*
X543190Y880110D02*
X593040Y929960D01*
X376043Y880110D02*
X543190D01*
X499110Y577950D02*
X499230Y577830D01*
X499110Y577950D02*
Y602742D01*
X367792Y497948D02*
X380092Y485648D01*
X350801Y470408D02*
X464566D01*
X442468Y485648D02*
X451104Y494284D01*
X380092Y485648D02*
X442468D01*
X332224Y470220D02*
X350613D01*
X376936Y478028D02*
X458924D01*
X383249Y493268D02*
X409194D01*
X350613Y470220D02*
X350801Y470408D01*
X409194Y493268D02*
X424942Y509016D01*
X360172Y494792D02*
X376936Y478028D01*
X375920Y500597D02*
X383249Y493268D01*
X436000Y452000D02*
X483000D01*
X324540Y462534D02*
X471678D01*
X360172Y494792D02*
Y584084D01*
X518548Y452000D02*
X536000D01*
X518548D02*
X530860Y464312D01*
X483000Y452000D02*
X518548D01*
X564323Y604677D02*
Y675172D01*
Y604677D02*
X569240Y599760D01*
X610840D01*
X744220Y732536D02*
X744243Y732513D01*
Y711997D02*
Y732513D01*
X417322Y736092D02*
Y747848D01*
X413010Y752160D02*
X417322Y747848D01*
X399404Y735954D02*
X399796Y736346D01*
X313976Y452000D02*
X436000D01*
X329060Y698820D02*
X344300Y714060D01*
X367792Y497948D02*
Y661321D01*
X375920Y500597D02*
Y663969D01*
X344300Y587060D02*
X357196D01*
X360172Y584084D01*
X344300Y684813D02*
X367792Y661321D01*
X624000Y731035D02*
X624155Y731189D01*
X624000Y652000D02*
Y731035D01*
X603560Y726760D02*
X623815Y747014D01*
X552742Y726760D02*
X603560D01*
X623815Y747014D02*
X647650D01*
X727227Y667437D01*
X592262Y828360D02*
X646360D01*
X593040Y802960D02*
X631040D01*
X589172Y817604D02*
X596356D01*
X554940Y841060D02*
X593040Y802960D01*
X344300Y841060D02*
X554940D01*
X553016Y853760D02*
X589172Y817604D01*
X596356D02*
X598300Y815660D01*
X593040Y777560D02*
X628778D01*
X585600Y784999D02*
Y797176D01*
X550418Y832358D02*
X585600Y797176D01*
Y784999D02*
X593040Y777560D01*
X368104Y832358D02*
X550418D01*
X354322Y818576D02*
X368104Y832358D01*
X344300Y815660D02*
X347216Y818576D01*
X354322D01*
X570738Y696468D02*
X581660Y685546D01*
Y654500D02*
Y685546D01*
Y654500D02*
X598300Y637860D01*
X344300Y684813D02*
Y688660D01*
X443024Y789000D02*
X446000Y786024D01*
Y775000D02*
Y786024D01*
X345560Y789000D02*
X443024D01*
X555382Y866902D02*
X593040Y904560D01*
X696542Y918458D02*
X698000Y917000D01*
X692490Y918458D02*
X696542D01*
X593040Y904560D02*
X657540D01*
X670560Y891540D01*
X715406Y659594D02*
X789504D01*
X792480Y656618D01*
Y655320D02*
Y656618D01*
X703111Y671889D02*
X715406Y659594D01*
X627380Y816356D02*
X627888Y815848D01*
X647848D01*
X646360Y828360D02*
X710000Y892000D01*
X627260Y841000D02*
X642060D01*
X627000Y840740D02*
X627260Y841000D01*
X647848Y815848D02*
X716380Y884380D01*
X953326Y713105D02*
Y732536D01*
X569140Y764860D02*
X598300D01*
X940627Y866140D02*
Y879997D01*
X937651Y882973D02*
X940627Y879997D01*
X642060Y841000D02*
X699000Y897940D01*
X598300Y891860D02*
X598620Y891540D01*
X344300Y663260D02*
X346610Y660950D01*
X651000Y691460D02*
X657980Y698440D01*
X673040D01*
X673100Y698500D01*
X628778Y777560D02*
X724983Y681355D01*
X651000Y644000D02*
Y691460D01*
X629458Y788542D02*
X705718Y712282D01*
X714751D01*
X715033Y712000D01*
X962152Y970788D02*
Y1012698D01*
X947420Y1027430D02*
Y1049020D01*
Y1027430D02*
X962152Y1012698D01*
Y970788D02*
X972820Y960120D01*
X923140Y977900D02*
X938993D01*
X966027Y885368D02*
X966160Y885500D01*
X966027Y866140D02*
Y885368D01*
X978727Y886727D02*
X978814Y886814D01*
X978727Y866140D02*
Y886727D01*
X991426Y887427D02*
X991514Y887514D01*
X991426Y866140D02*
Y887427D01*
X966027Y904494D02*
X966160Y904627D01*
X1042226Y923226D02*
X1043000Y924000D01*
X990000Y1158000D02*
X990360D01*
X1020050Y1100030D02*
Y1100415D01*
X795020Y718390D02*
Y732536D01*
Y718390D02*
X805000Y708410D01*
Y705000D02*
Y708410D01*
X782320Y866140D02*
Y886460D01*
X343640Y942000D02*
X344300Y942660D01*
X789000Y537976D02*
Y583764D01*
X344300Y790260D02*
X345560Y789000D01*
X610840Y599760D02*
X618000Y592600D01*
X627760Y575000D02*
Y590760D01*
Y559240D02*
Y575000D01*
X650000Y482000D02*
Y503000D01*
X624000Y618000D02*
X625000D01*
X651000Y644000D01*
X660760Y492760D02*
X696858D01*
X650000Y482000D02*
X660760Y492760D01*
X696858D02*
X699834Y495736D01*
X674312Y671889D02*
X703111D01*
X772160Y586740D02*
X786024D01*
X789000Y583764D01*
X638000Y470000D02*
X650000Y482000D01*
X659300Y622300D02*
X673100D01*
X618000Y540141D02*
Y592600D01*
X627760Y590760D02*
X659300Y622300D01*
X618000Y592600D02*
X673100Y647700D01*
X620000Y452000D02*
X638000Y470000D01*
Y505000D01*
X618000Y540141D02*
X627734Y530407D01*
Y524014D02*
Y530407D01*
X673100Y673100D02*
X674312Y671889D01*
X728544Y884380D02*
X731520Y881404D01*
X716380Y884380D02*
X728544D01*
X710000Y892000D02*
X737192D01*
X731520Y866140D02*
Y881404D01*
X737192Y892000D02*
X744220Y884972D01*
X849558Y890593D02*
X943815D01*
X953326Y881081D01*
X833120Y866140D02*
Y915024D01*
X836096Y918000D01*
X833120Y833374D02*
Y866140D01*
X836096Y918000D02*
X872024D01*
X953326Y866140D02*
Y881081D01*
X875000Y920976D02*
Y950000D01*
X872024Y918000D02*
X875000Y920976D01*
X946773Y904240D02*
X947159Y904627D01*
X820420Y732536D02*
Y768477D01*
Y719849D02*
Y732536D01*
X702918Y731082D02*
X703082D01*
X623458Y788542D02*
X629458D01*
X631040Y802960D02*
X702918Y731082D01*
X622000Y790000D02*
X623458Y788542D01*
X948917Y598661D02*
X971760Y621504D01*
X948917Y582266D02*
Y598661D01*
X787400Y650240D02*
X792480Y655320D01*
Y640516D02*
Y655320D01*
X772160Y650240D02*
X787400D01*
X927926Y671682D02*
Y732536D01*
Y768120D01*
X928168Y768361D01*
X718820Y732536D02*
Y766264D01*
X719025Y766469D01*
X792480Y627816D02*
Y640516D01*
X772160Y624840D02*
X789504D01*
X792480Y627816D01*
X789504Y637540D02*
X792480Y640516D01*
X772160Y637540D02*
X789504D01*
X1074420Y703580D02*
X1089660Y718820D01*
X1054100Y683260D02*
X1074420Y703580D01*
Y675640D02*
Y703580D01*
X699834Y495736D02*
Y558364D01*
X702809Y561340D01*
X722660D01*
X731520Y975360D02*
X753944D01*
X756920Y972384D01*
X774604Y949604D02*
X775000Y950000D01*
X1016408Y903483D02*
X1016846Y903045D01*
Y866159D02*
Y903045D01*
X1089660Y1150620D02*
Y1160780D01*
X1089660Y1150620D02*
X1089660Y1150620D01*
X1089660Y1150620D02*
X1089660Y718820D01*
X1042226Y831490D02*
X1042250Y831466D01*
X1020593Y1207866D02*
Y1210031D01*
X703580Y975360D02*
X721360D01*
X756920Y866140D02*
Y886460D01*
X744220Y866140D02*
Y884972D01*
X769620Y866140D02*
Y886460D01*
X1014096Y783907D02*
X1029527Y768477D01*
X1042226Y732536D02*
Y766939D01*
X1042236Y766949D01*
X1029475Y832223D02*
X1029527Y832274D01*
Y866140D01*
Y732536D02*
Y768477D01*
X880129Y597336D02*
Y617695D01*
X877153Y594360D02*
X880129Y597336D01*
X822960Y594360D02*
Y614680D01*
X1004127Y712027D02*
Y732536D01*
X901700Y521146D02*
Y540584D01*
X898724Y543560D02*
X901700Y540584D01*
X883920Y543560D02*
X898724D01*
X881380Y546100D02*
X883920Y543560D01*
X851336Y617695D02*
X870629D01*
X848360Y620670D02*
Y626944D01*
Y620670D02*
X851336Y617695D01*
X848360Y626944D02*
X851336Y629920D01*
X909083Y617457D02*
X909320Y617220D01*
X889629Y617695D02*
X889866Y617457D01*
X909083D01*
X972820Y591820D02*
X980186Y584454D01*
X960760Y591820D02*
X972820D01*
X833077Y732579D02*
Y765302D01*
X880129Y642695D02*
Y653089D01*
X820420Y833374D02*
Y866140D01*
X937260Y591820D02*
Y642620D01*
X937185Y642695D02*
X937260Y642620D01*
X889629Y642695D02*
X937185D01*
D66*
X516636Y728070D02*
Y784352D01*
X394081Y605515D02*
X516636Y728070D01*
X420878Y596391D02*
X551247Y726760D01*
X420878Y566360D02*
Y596391D01*
X413131Y559860D02*
Y597624D01*
X568302Y752795D01*
X406781Y600254D02*
X541528Y735001D01*
X406781Y553360D02*
Y600254D01*
X394081Y546852D02*
Y605515D01*
X400431Y602884D02*
X527685Y730138D01*
X400431Y550730D02*
Y602884D01*
X614172Y452000D02*
X622554Y443618D01*
Y435396D02*
Y443618D01*
X441000Y435120D02*
Y447000D01*
X436000Y452000D02*
X441000Y447000D01*
X483000Y452000D02*
X488000Y447000D01*
Y435000D02*
Y447000D01*
X541000Y435000D02*
Y447000D01*
X536000Y452000D02*
X541000Y447000D01*
X574040Y452000D02*
X580898Y445142D01*
Y434888D02*
Y445142D01*
X512572Y501396D02*
X522278D01*
X528066Y507184D01*
X520700Y542290D02*
X534162D01*
X510038Y531628D02*
X520700Y542290D01*
X518414Y516330D02*
X525044D01*
X528066Y513308D01*
Y507184D02*
Y513308D01*
X517000Y803064D02*
X527685Y792379D01*
Y730138D02*
Y792379D01*
X551247Y726760D02*
X552742D01*
X541528Y735001D02*
Y810695D01*
X568302Y752795D02*
X617909D01*
X482854Y648488D02*
X530834Y696468D01*
X482854Y564028D02*
Y648488D01*
X552119Y650601D02*
Y654635D01*
Y650601D02*
X552958Y649762D01*
X550418Y656336D02*
X552119Y654635D01*
X552958Y598678D02*
Y649762D01*
X482854Y564028D02*
X489249Y557633D01*
X514269Y654731D02*
X540258Y628741D01*
Y611778D02*
Y628741D01*
X531876Y655066D02*
X546608Y640334D01*
Y607314D02*
Y640334D01*
X383540Y548412D02*
X400324Y531628D01*
X402805Y538128D02*
X441708D01*
X400324Y531628D02*
X441708D01*
X394081Y546852D02*
X402805Y538128D01*
X490924Y929134D02*
Y955606D01*
X944372Y1146556D02*
Y1153882D01*
Y1146556D02*
X946150Y1144778D01*
X972475Y1051905D02*
X977954D01*
X518922Y553212D02*
X547148D01*
X499108Y564128D02*
X527474D01*
X547148Y553212D02*
X551434Y548926D01*
X527474Y564128D02*
X527513Y564089D01*
X508499Y570633D02*
X511403Y573537D01*
Y606352D01*
X499113Y570633D02*
X508499D01*
X455499Y589611D02*
X456692Y590804D01*
X441437Y582661D02*
X448387Y589611D01*
X455499D01*
X510286Y985266D02*
X510794Y985774D01*
X510286Y971750D02*
Y985266D01*
X493776Y969518D02*
X508054D01*
X510286Y971750D01*
X490924Y972370D02*
X493776Y969518D01*
X490924Y972370D02*
Y986534D01*
X480833Y998829D02*
X523040D01*
X475942Y1005332D02*
X552504D01*
X523040Y998829D02*
X525272Y996597D01*
X477929Y995925D02*
X480833Y998829D01*
X471429Y1000819D02*
X475942Y1005332D01*
X464924Y1007926D02*
X468680Y1011682D01*
X572008D01*
X458424Y1016970D02*
X462534Y1021080D01*
X584200D01*
X587248Y1018032D01*
X322580Y865886D02*
X322834Y866140D01*
X451924Y986534D02*
Y999432D01*
X447690Y1003300D02*
X448056D01*
X451924Y999432D01*
X426720Y1003300D02*
X430784Y999236D01*
Y986334D02*
Y999236D01*
Y938126D02*
Y960374D01*
Y977594D01*
X451924Y909901D02*
Y929134D01*
X449692Y907669D02*
X451924Y909901D01*
X433270Y907669D02*
X449692D01*
X462280Y894080D02*
X464924Y896724D01*
X455930Y900684D02*
X458424Y903178D01*
X353124Y900684D02*
X455930D01*
X344300Y891860D02*
X353124Y900684D01*
X371920Y894080D02*
X462280D01*
X344300Y866460D02*
X371920Y894080D01*
X587248Y990800D02*
Y1018032D01*
X458424Y986534D02*
Y1016970D01*
X572008Y1011682D02*
X573532Y1010158D01*
X527504Y975360D02*
X539750D01*
X525272Y977592D02*
Y996597D01*
Y977592D02*
X527504Y975360D01*
X554736Y965400D02*
Y1003100D01*
X552504Y1005332D02*
X554736Y1003100D01*
X556968Y963168D02*
X573532D01*
X554736Y965400D02*
X556968Y963168D01*
X573519Y988835D02*
X573786Y988568D01*
X968756Y1165138D02*
Y1198194D01*
Y1164376D02*
Y1165138D01*
X573786Y988568D02*
X585016D01*
X587248Y990800D01*
X464924Y986534D02*
Y1007926D01*
X477924Y986534D02*
X477929Y986539D01*
Y995925D01*
X480156Y900430D02*
X530027D01*
X595305Y965708D02*
X638302D01*
X532403Y893826D02*
X593303Y954725D01*
X646877D01*
X473910Y893826D02*
X532403D01*
X530027Y900430D02*
X595305Y965708D01*
X471424Y986534D02*
X471429Y986539D01*
Y1000819D01*
X966764Y1018500D02*
X972312D01*
X959017Y1026247D02*
X966764Y1018500D01*
X980186Y1030972D02*
Y1049673D01*
X977954Y1028740D02*
X980186Y1030972D01*
X972312Y1028740D02*
X977954D01*
X972312Y1052068D02*
X972475Y1051905D01*
X977954D02*
X980186Y1049673D01*
X657352Y965200D02*
Y965962D01*
X646877Y954725D02*
X657352Y965200D01*
X477924Y902662D02*
X480156Y900430D01*
X477924Y902662D02*
Y929134D01*
X471424D02*
X471429Y929129D01*
Y896307D02*
Y929129D01*
Y896307D02*
X473910Y893826D01*
X464924Y896724D02*
Y929134D01*
X458424Y903178D02*
Y929134D01*
X523494Y579374D02*
X533654D01*
X552958Y598678D01*
X499108Y531628D02*
X510038D01*
X483181Y506730D02*
X490982D01*
X510540Y487172D01*
X480949Y508962D02*
Y516396D01*
Y508962D02*
X483181Y506730D01*
X480949Y516396D02*
X483181Y518628D01*
X458924Y478028D02*
X461899Y481003D01*
X471678Y462534D02*
X474599Y465455D01*
X468249Y474091D02*
Y541401D01*
X510540Y487172D02*
X547624D01*
X461899Y481003D02*
Y544195D01*
X474599Y465455D02*
Y535515D01*
X483181Y518628D02*
X499108D01*
X464566Y470408D02*
X468249Y474091D01*
X474599Y535515D02*
X477212Y538128D01*
X461899Y544195D02*
X468832Y551128D01*
X468249Y541401D02*
X471476Y544628D01*
X551434Y490982D02*
Y548926D01*
X547624Y487172D02*
X551434Y490982D01*
X486651Y494017D02*
X486677D01*
X499872Y480822D01*
X578666D02*
X581152Y483308D01*
X499872Y480822D02*
X578666D01*
X581152Y483308D02*
Y561086D01*
X477212Y538128D02*
X499108D01*
X471476Y544628D02*
X499108D01*
X468832Y551128D02*
X499108D01*
X441437Y577273D02*
X441582Y577128D01*
X441437Y577273D02*
Y582661D01*
X441582Y577128D02*
X441708D01*
X439870Y601160D02*
X441510D01*
X429413Y590703D02*
X439870Y601160D01*
X429413Y573537D02*
Y590703D01*
X499108Y525128D02*
X518356D01*
X518414Y525070D01*
X527513Y564089D02*
X578149D01*
X581152Y561086D01*
X489249Y557633D02*
X499103D01*
X499108Y557628D01*
X511403Y606352D02*
X513635Y608584D01*
X537064D02*
X540258Y611778D01*
X536448Y597154D02*
X546608Y607314D01*
X513635Y608584D02*
X537064D01*
X523494Y597154D02*
X536448D01*
X321310Y558852D02*
X321440Y558982D01*
X624066Y758952D02*
X624586D01*
X617909Y752795D02*
X624066Y758952D01*
X427631Y525123D02*
X441703D01*
X426562Y524054D02*
X427631Y525123D01*
X417322Y524054D02*
X426562D01*
X406533Y544628D02*
X441708D01*
X400431Y550730D02*
X406533Y544628D01*
X424942Y509016D02*
X434554Y518628D01*
X441708D01*
X409013Y551128D02*
X441708D01*
X406781Y553360D02*
X409013Y551128D01*
X415363Y557628D02*
X441708D01*
X413131Y559860D02*
X415363Y557628D01*
X420878Y566360D02*
X423110Y564128D01*
X441708D01*
X577104Y843518D02*
X592262Y828360D01*
X577104Y843518D02*
Y845836D01*
X547370Y816537D02*
Y817372D01*
X541528Y810695D02*
X547370Y816537D01*
X517000Y803064D02*
Y804000D01*
X432317Y570633D02*
X441703D01*
X429413Y573537D02*
X432317Y570633D01*
X441703D02*
X441708Y570628D01*
X741680Y680595D02*
Y680720D01*
X759950Y680125D02*
X761208Y678867D01*
X741680Y680595D02*
X742150Y680125D01*
X759950D01*
X347160Y762000D02*
X468122D01*
X468630Y761492D01*
X344300Y764860D02*
X347160Y762000D01*
X724720Y681092D02*
X725092Y680720D01*
X731440D01*
X724720Y681092D02*
X724983Y681355D01*
X731520Y680800D02*
Y732536D01*
X968756Y1198194D02*
X980593Y1210031D01*
X944372Y1164122D02*
Y1193810D01*
X960593Y1210031D01*
X966524Y1144778D02*
X968756Y1147010D01*
Y1154136D01*
X959017Y1026247D02*
Y1098996D01*
X968194Y1041828D02*
X972312D01*
X965367Y1044655D02*
X968194Y1041828D01*
X965367Y1044655D02*
Y1085346D01*
X980051Y1100030D01*
X959017Y1098996D02*
X960051Y1100030D01*
X972312Y1052068D02*
Y1078032D01*
X1017819Y1080264D02*
X1020050Y1082496D01*
X972312Y1078032D02*
X974544Y1080264D01*
X1020050Y1082496D02*
Y1100030D01*
X974544Y1080264D02*
X1017819D01*
X638299Y580299D02*
X640000Y582000D01*
X633059Y580299D02*
X638299D01*
X627760Y575000D02*
X633059Y580299D01*
X638000Y505000D02*
Y515000D01*
X627760Y548000D02*
Y559240D01*
X627760Y515000D02*
Y523739D01*
X627884Y523863D01*
X799041Y799338D02*
X799084D01*
X789559D02*
X799041D01*
X940598Y701000D02*
Y732507D01*
Y684030D02*
Y701000D01*
X969000D02*
X980000Y712000D01*
X940598Y701000D02*
X969000D01*
X1053330Y684030D02*
X1054100Y683260D01*
X950838Y684030D02*
X1053330D01*
X940598Y732507D02*
X940627Y732536D01*
X799041Y799338D02*
X833077Y765302D01*
X786384Y799338D02*
X789559D01*
X775970D02*
X786384D01*
X799084D02*
X833120Y833374D01*
X786384Y799338D02*
X820420Y833374D01*
D67*
X875000Y950000D02*
X890105D01*
X893081Y952976D02*
Y974924D01*
X890105Y950000D02*
X893081Y952976D01*
X822960Y550020D02*
Y594360D01*
X991514Y887514D02*
Y1055587D01*
X1022000Y955912D02*
Y1032908D01*
X1027952Y1038860D01*
X991514Y1055587D02*
X997466Y1061539D01*
X1027952Y1038860D02*
X1052775D01*
X997466Y1061539D02*
X1029115D01*
X978814Y886814D02*
Y917185D01*
X938993Y957007D02*
X978814Y917185D01*
X932180Y907216D02*
Y916940D01*
X1027952Y949960D02*
X1068468D01*
X1074420Y944008D01*
X1022000Y955912D02*
X1027952Y949960D01*
X722253Y904004D02*
X722489Y904240D01*
X737920D01*
X714980Y922020D02*
X762000D01*
X703580Y933420D02*
Y944880D01*
Y933420D02*
X714980Y922020D01*
X935156Y904240D02*
X946773D01*
X932180Y907216D02*
X935156Y904240D01*
X894080Y690205D02*
Y690880D01*
X880140Y704820D02*
X894080Y690880D01*
X1074420Y722483D02*
Y944008D01*
X1029115Y1061539D02*
X1034099D01*
X1040050Y1067490D02*
Y1100030D01*
X1034099Y1061539D02*
X1040050Y1067490D01*
X759896Y949604D02*
X774604D01*
X756920Y952580D02*
Y972384D01*
Y952580D02*
X759896Y949604D01*
X769620Y886460D02*
Y914400D01*
X762000Y922020D02*
X769620Y914400D01*
X1010078Y703971D02*
X1055909D01*
X1074420Y722483D01*
X1004127Y709923D02*
Y712027D01*
Y709923D02*
X1010078Y703971D01*
X789559Y799338D02*
X820420Y768477D01*
D68*
X798576Y925576D02*
X802132D01*
X782320Y909320D02*
X798576Y925576D01*
X782320Y886460D02*
Y909320D01*
D69*
X825246Y975614D02*
X851904D01*
X796320Y975000D02*
X824632D01*
X825246Y975614D01*
X938993Y1005783D02*
Y1007666D01*
X841758Y1104900D02*
X938993Y1007666D01*
X703580Y1005840D02*
Y1104900D01*
X938993Y957007D02*
Y977900D01*
Y1005783D01*
X924000Y941000D02*
X938993Y955993D01*
X923000Y941000D02*
X924000D01*
X938993Y955993D02*
Y957007D01*
X703580Y944880D02*
Y975360D01*
Y1005840D01*
X851904Y975614D02*
X872840Y954678D01*
X777160Y955840D02*
X796320Y975000D01*
D70*
X875380Y1005783D02*
X938993D01*
X875000Y1005403D02*
X875380Y1005783D01*
X875000Y1000000D02*
Y1005403D01*
X889067Y727697D02*
X905931D01*
X880140Y718770D02*
X889067Y727697D01*
X880140Y704820D02*
Y718770D01*
X905931Y727697D02*
X907404Y729170D01*
X703580Y1005840D02*
X774620D01*
X775000Y1000000D02*
Y1005460D01*
X774620Y1005840D02*
X775000Y1005460D01*
D71*
X513300Y1197060D02*
X545360Y1165000D01*
X844697D01*
D72*
X908552Y1228856D01*
D73*
X703580Y1104900D02*
X841758D01*
X494190D02*
X703580D01*
X464530Y1134560D02*
X494190Y1104900D01*
X465800Y1204560D02*
X505800D01*
D74*
X598300Y942660D02*
D03*
Y917260D02*
D03*
Y891860D02*
D03*
Y866460D02*
D03*
Y841060D02*
D03*
Y815660D02*
D03*
Y790260D02*
D03*
Y764860D02*
D03*
Y739460D02*
D03*
Y714060D02*
D03*
Y688660D02*
D03*
Y637860D02*
D03*
Y612460D02*
D03*
Y587060D02*
D03*
X344300Y536260D02*
D03*
Y561660D02*
D03*
Y587060D02*
D03*
Y612460D02*
D03*
Y739460D02*
D03*
Y764860D02*
D03*
Y841060D02*
D03*
Y866460D02*
D03*
Y891860D02*
D03*
X908812Y1235710D02*
D03*
X835152D02*
D03*
D75*
X598300Y663260D02*
D03*
Y561660D02*
D03*
Y536260D02*
D03*
Y510860D02*
D03*
Y485460D02*
D03*
X344300D02*
D03*
Y510860D02*
D03*
Y637860D02*
D03*
Y663260D02*
D03*
Y688660D02*
D03*
Y714060D02*
D03*
Y790260D02*
D03*
Y815660D02*
D03*
Y917260D02*
D03*
D76*
Y942660D02*
D03*
D77*
X340360Y424942D02*
D03*
X1062000Y993000D02*
D03*
X340360Y993140D02*
D03*
X1062000Y424000D02*
D03*
D78*
X1020050Y1100030D02*
D03*
X960051D02*
D03*
X980051D02*
D03*
X1000050D02*
D03*
X1040050D02*
D03*
X1040593Y1210031D02*
D03*
X1000593D02*
D03*
X980593D02*
D03*
X960593D02*
D03*
X1020593D02*
D03*
D79*
X1060050Y1100030D02*
D03*
X1060593Y1210031D02*
D03*
D80*
X464530Y1204560D02*
D03*
D81*
Y1134560D02*
D03*
D82*
X673100Y698500D02*
D03*
Y673100D02*
D03*
Y647700D02*
D03*
Y622300D02*
D03*
Y596900D02*
D03*
Y571500D02*
D03*
Y546100D02*
D03*
D83*
Y520700D02*
D03*
D84*
X1053157Y591057D02*
D03*
X1053157Y482643D02*
D03*
X689140Y444500D02*
D03*
X563300Y1197060D02*
D03*
X906018Y444500D02*
D03*
X797560D02*
D03*
D85*
X1053157Y641057D02*
D03*
X1053157Y532643D02*
D03*
D86*
X739140Y444500D02*
D03*
X513300Y1197060D02*
D03*
X956018Y444500D02*
D03*
X847560D02*
D03*
D87*
X398576Y625276D02*
D03*
X512572Y501396D02*
D03*
X820420Y884936D02*
D03*
X846582Y905256D02*
D03*
X846836Y865378D02*
D03*
X534162Y542290D02*
D03*
Y523494D02*
D03*
X516636Y784352D02*
D03*
X497332Y647700D02*
D03*
X570685Y739315D02*
D03*
X550418Y656336D02*
D03*
X698246Y616966D02*
D03*
Y637794D02*
D03*
X514269Y654731D02*
D03*
X535941Y678148D02*
D03*
X531876Y655066D02*
D03*
X390652Y526034D02*
D03*
X770000Y535000D02*
D03*
X383032Y866902D02*
D03*
X364744Y867918D02*
D03*
X518922Y553212D02*
D03*
X456692Y590804D02*
D03*
X382270Y736854D02*
D03*
X364236Y737362D02*
D03*
X390652Y948690D02*
D03*
X510794Y985774D02*
D03*
X406146Y1003300D02*
D03*
X322580Y865886D02*
D03*
X311160Y942000D02*
D03*
X573532Y1010158D02*
D03*
X573519Y988835D02*
D03*
X539750Y975360D02*
D03*
X573532Y963168D02*
D03*
X657352Y965962D02*
D03*
X638302Y965708D02*
D03*
X499110Y602742D02*
D03*
X523494Y579374D02*
D03*
X486651Y494017D02*
D03*
X390652Y504698D02*
D03*
X451104Y494284D02*
D03*
X441510Y601160D02*
D03*
X530860Y464312D02*
D03*
X528320Y620014D02*
D03*
X523494Y597154D02*
D03*
X417322Y736092D02*
D03*
X399796Y736346D02*
D03*
X624155Y731189D02*
D03*
X624586Y758952D02*
D03*
X577104Y845836D02*
D03*
X547370Y817372D02*
D03*
X761208Y678867D02*
D03*
X446000Y775000D02*
D03*
X627380Y816356D02*
D03*
X627000Y840740D02*
D03*
X517000Y804000D02*
D03*
X468630Y761492D02*
D03*
X569140Y764860D02*
D03*
X670560Y891540D02*
D03*
X715033Y712000D02*
D03*
X722253Y904004D02*
D03*
X990000Y1158000D02*
D03*
X624000Y652000D02*
D03*
X640000Y582000D02*
D03*
X650000Y503000D02*
D03*
X624000Y618000D02*
D03*
X698000Y659000D02*
D03*
X699000Y897940D02*
D03*
X698000Y917000D02*
D03*
X894080Y690205D02*
D03*
X932180Y916940D02*
D03*
X703082Y731082D02*
D03*
X622000Y790000D02*
D03*
X744243Y711997D02*
D03*
X953636Y712795D02*
D03*
X980000Y712000D02*
D03*
X1074420Y675640D02*
D03*
X947420Y1049020D02*
D03*
X972820Y960120D02*
D03*
X1016408Y903483D02*
D03*
X1089660Y1160780D02*
D03*
X909320Y617220D02*
D03*
X1089660Y718820D02*
D03*
D88*
X802132Y925576D02*
D03*
X825246Y975614D02*
D03*
X1043000Y924000D02*
D03*
X1026582Y1143541D02*
D03*
X1066594Y1143929D02*
D03*
X805000Y705000D02*
D03*
X907404Y729170D02*
D03*
X923000Y941000D02*
D03*
M02*
