G04*
G04 #@! TF.GenerationSoftware,Altium Limited,Altium Designer,22.9.1 (49)*
G04*
G04 Layer_Color=8421504*
%FSLAX44Y44*%
%MOMM*%
G71*
G04*
G04 #@! TF.SameCoordinates,66478680-C35E-4369-986B-202EB0108B9E*
G04*
G04*
G04 #@! TF.FilePolarity,Positive*
G04*
G01*
G75*
%ADD15R,1.6000X3.2000*%
%ADD16R,0.6000X0.5300*%
%ADD17R,0.9000X1.6000*%
%ADD18R,0.5000X0.4750*%
G04:AMPARAMS|DCode=19|XSize=1.57mm|YSize=0.41mm|CornerRadius=0.0513mm|HoleSize=0mm|Usage=FLASHONLY|Rotation=90.000|XOffset=0mm|YOffset=0mm|HoleType=Round|Shape=RoundedRectangle|*
%AMROUNDEDRECTD19*
21,1,1.5700,0.3075,0,0,90.0*
21,1,1.4675,0.4100,0,0,90.0*
1,1,0.1025,0.1538,0.7338*
1,1,0.1025,0.1538,-0.7338*
1,1,0.1025,-0.1538,-0.7338*
1,1,0.1025,-0.1538,0.7338*
%
%ADD19ROUNDEDRECTD19*%
G04:AMPARAMS|DCode=20|XSize=1.57mm|YSize=0.41mm|CornerRadius=0.0513mm|HoleSize=0mm|Usage=FLASHONLY|Rotation=180.000|XOffset=0mm|YOffset=0mm|HoleType=Round|Shape=RoundedRectangle|*
%AMROUNDEDRECTD20*
21,1,1.5700,0.3075,0,0,180.0*
21,1,1.4675,0.4100,0,0,180.0*
1,1,0.1025,-0.7338,0.1538*
1,1,0.1025,0.7338,0.1538*
1,1,0.1025,0.7338,-0.1538*
1,1,0.1025,-0.7338,-0.1538*
%
%ADD20ROUNDEDRECTD20*%
%ADD21R,0.5588X1.8034*%
%ADD22R,12.5984X7.1882*%
%ADD23R,0.4750X0.5000*%
%ADD24R,0.9000X1.3000*%
G04:AMPARAMS|DCode=25|XSize=1.97mm|YSize=0.6mm|CornerRadius=0.075mm|HoleSize=0mm|Usage=FLASHONLY|Rotation=180.000|XOffset=0mm|YOffset=0mm|HoleType=Round|Shape=RoundedRectangle|*
%AMROUNDEDRECTD25*
21,1,1.9700,0.4500,0,0,180.0*
21,1,1.8200,0.6000,0,0,180.0*
1,1,0.1500,-0.9100,0.2250*
1,1,0.1500,0.9100,0.2250*
1,1,0.1500,0.9100,-0.2250*
1,1,0.1500,-0.9100,-0.2250*
%
%ADD25ROUNDEDRECTD25*%
%ADD26R,0.5300X0.6000*%
%ADD27R,2.2000X1.1000*%
%ADD28R,1.1500X1.1500*%
%ADD29R,1.2500X2.3000*%
%ADD30R,2.9500X3.5000*%
%ADD31R,0.6000X1.2500*%
D15*
X875030Y948074D02*
D03*
Y998074D02*
D03*
X774954Y998182D02*
D03*
Y948182D02*
D03*
D16*
X822960Y623420D02*
D03*
Y614680D02*
D03*
X430784Y929080D02*
D03*
Y937820D02*
D03*
Y986334D02*
D03*
Y977594D02*
D03*
X518414Y516330D02*
D03*
Y525070D02*
D03*
X417322Y524054D02*
D03*
Y515314D02*
D03*
D17*
X826510Y688086D02*
D03*
X857510D02*
D03*
X826764Y661924D02*
D03*
X857764D02*
D03*
X1026752Y1173448D02*
D03*
X1057752D02*
D03*
X1029115Y1061539D02*
D03*
X1060115D02*
D03*
D18*
X944372Y1164376D02*
D03*
Y1154136D02*
D03*
X972312Y1028740D02*
D03*
Y1018500D02*
D03*
X972566Y1051854D02*
D03*
Y1041614D02*
D03*
X968756Y1154898D02*
D03*
Y1165138D02*
D03*
X488000Y424760D02*
D03*
Y435000D02*
D03*
X441000Y424880D02*
D03*
Y435120D02*
D03*
X541000Y424760D02*
D03*
Y435000D02*
D03*
X622554Y425156D02*
D03*
Y435396D02*
D03*
X580898Y434888D02*
D03*
Y424648D02*
D03*
D19*
X451924Y929134D02*
D03*
X458424D02*
D03*
X464924D02*
D03*
X471424D02*
D03*
X477924D02*
D03*
X484424D02*
D03*
X490924D02*
D03*
Y986534D02*
D03*
X484424D02*
D03*
X477924D02*
D03*
X471424D02*
D03*
X464924D02*
D03*
X458424D02*
D03*
X451924D02*
D03*
D20*
X499108Y518628D02*
D03*
Y525128D02*
D03*
Y531628D02*
D03*
Y538128D02*
D03*
Y544628D02*
D03*
Y551128D02*
D03*
Y557628D02*
D03*
Y564128D02*
D03*
Y570628D02*
D03*
Y577128D02*
D03*
X441708D02*
D03*
Y570628D02*
D03*
Y564128D02*
D03*
Y557628D02*
D03*
Y551128D02*
D03*
Y544628D02*
D03*
Y538128D02*
D03*
Y531628D02*
D03*
Y525128D02*
D03*
Y518628D02*
D03*
D21*
X718820Y732536D02*
D03*
X731520D02*
D03*
X744220D02*
D03*
X756920D02*
D03*
X769620D02*
D03*
X782320D02*
D03*
X795020D02*
D03*
X807720D02*
D03*
X820420D02*
D03*
X833120D02*
D03*
Y866140D02*
D03*
X820420D02*
D03*
X807720D02*
D03*
X795020D02*
D03*
X782320D02*
D03*
X769620D02*
D03*
X756920D02*
D03*
X744220D02*
D03*
X731520D02*
D03*
X718820D02*
D03*
X927926Y732536D02*
D03*
X940627D02*
D03*
X953326D02*
D03*
X966027D02*
D03*
X978727D02*
D03*
X991426D02*
D03*
X1004127D02*
D03*
X1016826D02*
D03*
X1029527D02*
D03*
X1042226D02*
D03*
Y866140D02*
D03*
X1029527D02*
D03*
X1016826D02*
D03*
X1004127D02*
D03*
X991426D02*
D03*
X978727D02*
D03*
X966027D02*
D03*
X953326D02*
D03*
X940627D02*
D03*
X927926D02*
D03*
D22*
X775970Y799338D02*
D03*
X985077D02*
D03*
D23*
X627760Y515000D02*
D03*
X638000D02*
D03*
X627760Y548000D02*
D03*
X638000D02*
D03*
X741680Y680720D02*
D03*
X731440D02*
D03*
X940598Y684030D02*
D03*
X950838D02*
D03*
D24*
X947159Y904627D02*
D03*
X966160D02*
D03*
X737920Y904240D02*
D03*
X756920D02*
D03*
D25*
X772160Y561340D02*
D03*
Y574040D02*
D03*
Y586740D02*
D03*
Y599440D02*
D03*
Y612140D02*
D03*
Y624840D02*
D03*
Y637540D02*
D03*
Y650240D02*
D03*
X722660D02*
D03*
Y637540D02*
D03*
Y624840D02*
D03*
Y612140D02*
D03*
Y599440D02*
D03*
Y586740D02*
D03*
Y574040D02*
D03*
Y561340D02*
D03*
D26*
X722780Y975360D02*
D03*
X731520D02*
D03*
X889710Y657860D02*
D03*
X898450D02*
D03*
X923140Y977900D02*
D03*
X914400D02*
D03*
D27*
X958596Y551424D02*
D03*
Y518424D02*
D03*
X921258Y551170D02*
D03*
Y518170D02*
D03*
D28*
X960760Y591820D02*
D03*
X937260D02*
D03*
D29*
X971760Y642620D02*
D03*
X937260D02*
D03*
D30*
X826880Y546100D02*
D03*
X881380D02*
D03*
D31*
X870629Y617695D02*
D03*
X880129D02*
D03*
X889629D02*
D03*
Y642695D02*
D03*
X880129D02*
D03*
X870629D02*
D03*
M02*
